<svg xmlns="http://www.w3.org/2000/svg" xmlns:xlink="http://www.w3.org/1999/xlink" width="1080" zoomAndPan="magnify" viewBox="0 0 810 809.999993" height="1080" preserveAspectRatio="xMidYMid meet" version="1.0"><path fill="#d8b256" d="M 405 0 C 181.324219 0 0 181.324219 0 405 C 0 628.675781 181.324219 810 405 810 C 628.675781 810 810 628.675781 810 405 C 810 181.324219 628.675781 0 405 0 Z M 158.15625 211.28125 L 651.320312 211.28125 C 651.882812 211.277344 652.390625 211.433594 652.855469 211.742188 C 653.320312 212.054688 653.65625 212.46875 653.867188 212.988281 C 654.074219 213.507812 654.117188 214.039062 654 214.585938 C 653.878906 215.132812 653.617188 215.597656 653.210938 215.984375 L 487.425781 373.320312 L 487.15625 373.589844 L 437.652344 420.570312 C 436.472656 421.695312 435.242188 422.761719 433.960938 423.769531 C 432.675781 424.773438 431.351562 425.71875 429.980469 426.597656 C 428.605469 427.476562 427.195312 428.289062 425.746094 429.03125 C 424.296875 429.777344 422.8125 430.449219 421.296875 431.050781 C 419.785156 431.652344 418.242188 432.179688 416.679688 432.636719 C 415.113281 433.089844 413.527344 433.46875 411.925781 433.769531 C 410.324219 434.070312 408.714844 434.296875 407.089844 434.445312 C 405.46875 434.589844 403.839844 434.660156 402.210938 434.652344 C 400.582031 434.644531 398.957031 434.558594 397.335938 434.390625 C 395.710938 434.226562 394.101562 433.984375 392.503906 433.667969 C 390.90625 433.347656 389.328125 432.953125 387.765625 432.480469 C 386.207031 432.011719 384.671875 431.46875 383.164062 430.847656 C 381.65625 430.230469 380.179688 429.542969 378.738281 428.785156 C 377.296875 428.023438 375.894531 427.195312 374.53125 426.304688 C 373.167969 425.410156 371.851562 424.453125 370.582031 423.433594 C 369.308594 422.410156 368.089844 421.332031 366.921875 420.195312 L 321.089844 375.757812 C 321.011719 375.683594 320.9375 375.609375 320.855469 375.535156 L 156.246094 215.960938 C 155.847656 215.574219 155.59375 215.109375 155.476562 214.566406 C 155.363281 214.019531 155.410156 213.492188 155.621094 212.976562 C 155.832031 212.460938 156.167969 212.050781 156.628906 211.742188 C 157.09375 211.433594 157.601562 211.277344 158.15625 211.28125 Z M 134.910156 571.507812 L 134.910156 233.050781 C 134.910156 232.503906 135.0625 232 135.363281 231.542969 C 135.664062 231.089844 136.066406 230.753906 136.570312 230.539062 C 137.074219 230.328125 137.597656 230.269531 138.132812 230.371094 C 138.671875 230.46875 139.136719 230.710938 139.53125 231.089844 L 295.957031 382.757812 C 296.203125 382.996094 296.398438 383.273438 296.539062 383.585938 C 296.683594 383.902344 296.761719 384.230469 296.78125 384.574219 C 296.796875 384.917969 296.75 385.25 296.644531 385.578125 C 296.535156 385.90625 296.367188 386.199219 296.148438 386.464844 L 139.726562 573.265625 C 139.355469 573.707031 138.894531 574 138.339844 574.148438 C 137.785156 574.296875 137.238281 574.273438 136.699219 574.078125 C 136.160156 573.878906 135.726562 573.546875 135.398438 573.074219 C 135.070312 572.605469 134.90625 572.082031 134.910156 571.507812 Z M 656.402344 598.71875 L 153.597656 598.71875 C 153.066406 598.71875 152.582031 598.578125 152.132812 598.292969 C 151.6875 598.007812 151.351562 597.625 151.128906 597.144531 C 150.90625 596.667969 150.828125 596.164062 150.898438 595.640625 C 150.964844 595.113281 151.167969 594.648438 151.507812 594.242188 L 312.09375 402.480469 C 312.335938 402.191406 312.628906 401.960938 312.96875 401.792969 C 313.304688 401.621094 313.664062 401.527344 314.042969 401.507812 C 314.421875 401.488281 314.789062 401.546875 315.140625 401.679688 C 315.496094 401.8125 315.808594 402.011719 316.082031 402.273438 L 351.226562 436.347656 C 354.597656 439.628906 358.25 442.558594 362.1875 445.136719 C 366.121094 447.714844 370.269531 449.890625 374.625 451.671875 C 378.980469 453.449219 383.464844 454.792969 388.078125 455.710938 C 392.695312 456.625 397.355469 457.089844 402.058594 457.105469 L 402.460938 457.105469 C 407.132812 457.113281 411.761719 456.679688 416.351562 455.800781 C 420.9375 454.921875 425.402344 453.617188 429.742188 451.886719 C 434.078125 450.15625 438.214844 448.027344 442.148438 445.503906 C 446.078125 442.984375 449.738281 440.113281 453.121094 436.890625 L 492.011719 399.964844 C 492.285156 399.707031 492.597656 399.511719 492.949219 399.382812 C 493.304688 399.253906 493.667969 399.199219 494.042969 399.222656 C 494.417969 399.242188 494.773438 399.339844 495.109375 399.507812 C 495.445312 399.675781 495.734375 399.902344 495.976562 400.191406 L 658.480469 594.242188 C 658.820312 594.648438 659.023438 595.113281 659.09375 595.636719 C 659.160156 596.160156 659.085938 596.664062 658.863281 597.140625 C 658.640625 597.621094 658.304688 598.003906 657.863281 598.289062 C 657.417969 598.574219 656.929688 598.71875 656.402344 598.71875 Z M 675.089844 571.507812 C 675.089844 572.082031 674.925781 572.601562 674.597656 573.070312 C 674.265625 573.539062 673.832031 573.875 673.292969 574.070312 C 672.753906 574.265625 672.210938 574.289062 671.65625 574.136719 C 671.101562 573.988281 670.640625 573.695312 670.273438 573.253906 L 512.132812 384.40625 C 511.910156 384.140625 511.742188 383.84375 511.632812 383.511719 C 511.523438 383.183594 511.480469 382.847656 511.5 382.5 C 511.519531 382.152344 511.601562 381.824219 511.75 381.507812 C 511.894531 381.195312 512.09375 380.917969 512.34375 380.679688 L 670.5 230.589844 C 670.894531 230.21875 671.359375 229.984375 671.894531 229.890625 C 672.425781 229.796875 672.945312 229.859375 673.441406 230.070312 C 673.941406 230.285156 674.339844 230.621094 674.640625 231.074219 C 674.9375 231.527344 675.089844 232.023438 675.089844 232.566406 Z M 675.089844 571.507812 " fill-opacity="1" fill-rule="nonzero"/></svg>