<svg xmlns="http://www.w3.org/2000/svg" xmlns:xlink="http://www.w3.org/1999/xlink" width="1080" zoomAndPan="magnify" viewBox="0 0 810 809.999993" height="1080" preserveAspectRatio="xMidYMid meet" version="1.0"><defs><clipPath id="809abaf993"><path d="M 0 1.472656 L 810 1.472656 L 810 808.472656 L 0 808.472656 Z M 0 1.472656 " clip-rule="nonzero"/></clipPath></defs><g clip-path="url(#809abaf993)"><path fill="#d8b256" d="M 405.175781 1.75 C 181.363281 1.75 0 183.105469 0 406.902344 C 0 607.898438 146.636719 774.871094 338.523438 806.441406 L 338.523438 531.78125 L 235.386719 531.78125 L 235.386719 411.460938 L 338.523438 411.460938 L 338.523438 324.117188 C 338.523438 229.40625 415.347656 165.214844 510.066406 165.214844 C 552.160156 165.214844 578.472656 171.527344 578.472656 171.527344 L 578.472656 272.554688 L 510.066406 272.554688 C 481.648438 272.554688 458.496094 295.703125 458.496094 324.117188 L 458.496094 411.460938 L 569 411.460938 L 553.5625 531.78125 L 458.496094 531.78125 L 458.496094 808.195312 C 656.699219 781.886719 809.648438 612.109375 809.648438 406.902344 C 810 183.105469 628.636719 1.75 405.175781 1.75 Z M 405.175781 1.75 " fill-opacity="1" fill-rule="nonzero"/></g></svg>