<svg xmlns="http://www.w3.org/2000/svg" xmlns:xlink="http://www.w3.org/1999/xlink" width="6912" zoomAndPan="magnify" viewBox="0 0 5184 1079.999946" height="1440" preserveAspectRatio="xMidYMid meet" version="1.0"><defs><g/></defs><g fill="#000000" fill-opacity="1"><g transform="translate(439.570932, 698.249916)"><g><path d="M 337.054688 372.3125 C 340.582031 375.835938 343.402344 377.246094 346.222656 377.246094 C 349.042969 377.246094 351.15625 376.542969 354.683594 373.722656 C 359.617188 369.492188 359.617188 368.082031 360.324219 328.59375 C 362.4375 163.589844 384.296875 -178.398438 400.515625 -309.554688 C 410.386719 -382.886719 411.09375 -387.117188 427.3125 -419.554688 C 442.824219 -449.875 451.992188 -474.554688 454.8125 -488.660156 C 457.632812 -503.464844 449.171875 -516.863281 437.183594 -516.863281 C 435.773438 -516.863281 433.65625 -516.863281 432.246094 -516.160156 C 417.441406 -512.632812 401.222656 -481.605469 389.941406 -434.363281 C 386.414062 -418.144531 381.476562 -401.925781 379.363281 -397.695312 C 373.015625 -384.296875 329.296875 -318.722656 303.207031 -284.167969 C 261.605469 -228.464844 229.167969 -188.269531 152.308594 -98.015625 C 148.785156 -93.78125 145.964844 -91.667969 144.550781 -93.078125 C 143.140625 -95.898438 146.667969 -227.757812 150.195312 -267.246094 C 159.359375 -386.414062 181.925781 -521.09375 194.617188 -531.671875 C 198.144531 -535.199219 198.847656 -547.890625 194.617188 -551.414062 C 193.207031 -552.824219 188.976562 -554.234375 185.449219 -554.234375 C 181.21875 -554.234375 176.285156 -552.824219 173.464844 -550.710938 C 167.117188 -546.480469 160.769531 -528.851562 150.898438 -489.363281 C 126.925781 -389.234375 114.9375 -276.414062 112.117188 -129.039062 L 111.410156 -52.179688 L 102.246094 -41.601562 C 96.601562 -35.960938 69.808594 -7.757812 42.308594 21.859375 C -27.5 95.898438 -29.617188 98.015625 -29.617188 112.117188 C -29.617188 118.460938 -28.207031 121.988281 -23.269531 125.515625 C -19.742188 128.335938 -16.921875 129.746094 -10.578125 129.746094 C -3.527344 129.746094 8.460938 127.628906 31.027344 122.695312 C 52.886719 117.757812 79.679688 114.9375 99.425781 114.9375 C 106.476562 114.9375 112.117188 115.640625 117.050781 116.347656 L 128.335938 118.460938 L 134.679688 142.4375 C 144.550781 181.21875 157.246094 201.667969 173.464844 204.488281 C 175.578125 204.488281 176.988281 205.195312 179.105469 205.195312 C 192.5 205.195312 203.078125 195.324219 208.015625 179.105469 C 214.359375 158.65625 208.71875 136.796875 193.914062 119.871094 C 188.269531 112.820312 165.707031 95.898438 158.65625 93.78125 C 155.835938 93.078125 150.898438 53.589844 147.375 0.707031 L 145.257812 -41.601562 L 162.179688 -61.347656 C 224.9375 -133.269531 306.734375 -234.808594 347.632812 -291.925781 C 358.914062 -307.4375 368.785156 -320.132812 368.785156 -320.132812 C 369.492188 -319.425781 368.082031 -308.144531 366.671875 -294.746094 C 358.914062 -229.875 349.042969 -105.066406 340.582031 34.550781 C 332.117188 182.628906 330.707031 216.476562 330.707031 291.222656 L 330.707031 366.671875 Z M 178.398438 157.246094 C 179.808594 163.589844 179.808594 168.527344 177.695312 168.527344 C 177.695312 168.527344 176.988281 167.820312 176.285156 167.117188 C 173.464844 162.886719 165.707031 138.910156 167.117188 138.207031 C 168.527344 136.089844 176.988281 149.488281 178.398438 157.246094 Z M 23.972656 91.667969 C 19.039062 93.078125 33.847656 76.15625 80.386719 27.5 C 102.949219 4.230469 113.527344 -5.640625 114.230469 -2.820312 C 114.9375 -1.410156 117.050781 15.511719 117.757812 34.550781 C 119.871094 52.886719 121.285156 71.921875 121.988281 76.15625 L 123.398438 84.617188 L 102.246094 83.910156 C 75.449219 83.910156 50.066406 85.320312 23.972656 91.667969 Z M 23.972656 91.667969 "/></g></g></g><g fill="#000000" fill-opacity="1"><g transform="translate(940.921669, 698.249916)"><g><path d="M 31.027344 46.539062 C 38.078125 47.949219 47.949219 49.359375 57.820312 49.359375 C 98.015625 49.359375 134.679688 30.320312 166.410156 7.050781 C 202.375 -19.742188 273.59375 -95.191406 273.59375 -105.769531 C 273.59375 -113.527344 265.835938 -120.578125 257.375 -120.578125 C 251.027344 -120.578125 247.503906 -117.757812 231.988281 -100.835938 C 150.898438 -12.691406 106.476562 17.628906 57.117188 17.628906 C 9.167969 17.628906 -6.347656 -26.089844 16.921875 -97.308594 L 22.5625 -116.347656 L 31.730469 -114.9375 C 33.140625 -114.9375 35.257812 -114.230469 36.667969 -114.230469 C 70.511719 -114.230469 107.886719 -178.398438 110 -210.835938 C 110.707031 -224.9375 110 -227.054688 105.066406 -231.988281 C 99.425781 -237.628906 94.488281 -241.15625 88.140625 -241.15625 C 77.566406 -241.15625 65.578125 -232.695312 50.066406 -217.179688 C 21.859375 -188.269531 -3.527344 -142.4375 -17.628906 -94.488281 C -23.269531 -76.859375 -23.972656 -69.808594 -23.972656 -43.71875 C -23.972656 -16.921875 -23.972656 -11.28125 -19.039062 0 C -9.871094 22.5625 9.167969 40.191406 31.027344 46.539062 Z M 55 -158.65625 C 48.65625 -150.898438 41.601562 -143.847656 38.78125 -143.847656 C 38.078125 -143.847656 38.078125 -144.550781 38.078125 -145.257812 C 38.078125 -150.898438 73.335938 -200.964844 76.15625 -198.847656 C 77.566406 -196.734375 63.460938 -169.230469 55 -158.65625 Z M 55 -158.65625 "/></g></g></g><g fill="#000000" fill-opacity="1"><g transform="translate(1269.514796, 698.249916)"><g><path d="M -88.140625 322.953125 C -82.5 326.476562 -76.15625 328.59375 -69.101562 328.59375 C -1.410156 328.59375 62.757812 208.015625 84.617188 157.246094 C 96.601562 128.335938 119.871094 61.347656 126.925781 33.847656 L 131.15625 16.921875 L 170.644531 -19.742188 C 192.5 -40.191406 220.707031 -65.578125 232.695312 -76.859375 C 274.296875 -114.230469 274.296875 -112.820312 265.835938 -123.398438 C 263.015625 -127.628906 258.785156 -129.746094 254.554688 -129.746094 C 250.324219 -129.746094 246.09375 -128.335938 241.859375 -125.515625 C 238.335938 -123.398438 219.296875 -106.476562 199.554688 -88.847656 C 179.808594 -70.511719 158.65625 -52.179688 153.015625 -47.242188 L 142.4375 -38.078125 L 144.550781 -47.242188 C 148.785156 -69.101562 152.308594 -99.425781 155.128906 -129.039062 C 159.359375 -179.105469 153.71875 -197.4375 133.976562 -197.4375 C 121.988281 -197.4375 115.640625 -190.386719 89.550781 -147.375 C 59.9375 -97.308594 36.667969 -62.757812 24.679688 -49.359375 L 14.101562 -38.078125 L 14.808594 -64.167969 C 16.21875 -95.191406 30.320312 -156.539062 47.242188 -180.515625 C 55.707031 -191.796875 57.117188 -196.734375 55 -203.785156 C 52.886719 -208.71875 47.242188 -212.246094 41.601562 -212.246094 C 39.488281 -212.246094 37.371094 -211.539062 35.257812 -210.835938 C 16.21875 -201.667969 -17.628906 -100.835938 -17.628906 -54.296875 C -17.628906 -33.847656 -14.101562 -6.347656 11.28125 -6.347656 C 19.742188 -6.347656 24.679688 -7.757812 31.730469 -12.691406 C 47.949219 -23.972656 77.566406 -64.167969 112.117188 -122.695312 C 117.757812 -132.566406 119.871094 -136.796875 121.285156 -136.796875 C 121.988281 -136.796875 122.695312 -135.386719 122.695312 -133.269531 C 123.398438 -123.398438 117.050781 -71.21875 109.296875 -33.847656 L 102.949219 0 L 82.5 20.449219 C -5.640625 112.820312 -91.667969 237.628906 -100.128906 286.285156 C -102.949219 303.914062 -99.425781 315.902344 -88.140625 322.953125 Z M -44.421875 287.695312 C -52.886719 292.632812 -62.757812 296.15625 -66.988281 296.15625 C -69.101562 296.15625 -69.808594 296.15625 -69.808594 294.746094 C -69.808594 266.542969 7.050781 158.65625 23.972656 136.796875 C 44.421875 110.707031 82.5 65.578125 83.910156 66.28125 C 84.617188 66.988281 71.921875 102.246094 61.347656 129.746094 C 40.898438 180.515625 2.117188 256.667969 -44.421875 287.695312 Z M -44.421875 287.695312 "/></g></g></g><g fill="#000000" fill-opacity="1"><g transform="translate(1588.941162, 698.249916)"><g/></g></g><g fill="#000000" fill-opacity="1"><g transform="translate(1835.033517, 698.249916)"><g><path d="M 5.640625 312.375 C 86.027344 312.375 205.195312 221.414062 258.078125 168.527344 C 298.273438 128.335938 322.246094 96.601562 356.796875 40.898438 C 360.324219 35.257812 382.886719 20.449219 468.914062 -29.617188 C 528.144531 -64.167969 578.914062 -95.191406 581.03125 -98.015625 C 584.558594 -102.949219 585.261719 -104.359375 582.441406 -109.296875 C 580.324219 -114.9375 573.980469 -118.460938 566.929688 -118.460938 C 565.519531 -118.460938 563.402344 -118.460938 561.289062 -117.757812 C 557.761719 -116.347656 540.132812 -106.476562 521.800781 -95.898438 C 503.464844 -84.617188 480.195312 -71.21875 470.324219 -65.578125 C 459.746094 -59.230469 436.480469 -45.832031 418.144531 -35.257812 C 399.8125 -23.972656 384.296875 -15.511719 383.59375 -16.21875 C 382.886719 -16.921875 385.003906 -25.386719 387.117188 -35.257812 C 393.464844 -57.117188 395.582031 -101.539062 392.054688 -120.578125 C 377.953125 -184.746094 316.605469 -205.898438 258.078125 -205.898438 C 231.285156 -205.898438 201.667969 -203.078125 179.105469 -198.144531 C 174.167969 -196.734375 177.695312 -200.964844 197.4375 -220.003906 C 255.964844 -276.414062 298.976562 -335.644531 298.976562 -359.617188 C 298.976562 -373.015625 291.222656 -380.773438 279.9375 -380.773438 C 274.296875 -380.773438 267.953125 -379.363281 261.605469 -375.835938 C 224.9375 -358.207031 155.835938 -275.003906 110 -192.5 C 107.886719 -188.269531 105.769531 -185.449219 105.066406 -186.15625 C 102.949219 -187.566406 112.117188 -272.183594 119.871094 -322.953125 C 130.449219 -396.285156 144.550781 -460.453125 153.71875 -481.605469 C 159.359375 -492.890625 159.359375 -500.644531 154.425781 -506.992188 C 152.308594 -510.519531 148.078125 -511.929688 143.847656 -511.929688 C 140.320312 -511.929688 137.5 -511.222656 134.679688 -509.109375 C 127.628906 -503.464844 105.066406 -420.964844 93.78125 -360.324219 C 87.4375 -323.65625 77.566406 -248.914062 74.039062 -204.488281 C 72.628906 -187.566406 71.21875 -170.644531 70.511719 -168.527344 C 70.511719 -165 63.460938 -160.066406 51.476562 -153.015625 C 32.4375 -141.730469 27.5 -135.386719 30.320312 -125.515625 C 32.4375 -119.167969 38.78125 -114.9375 47.242188 -114.9375 C 50.769531 -114.9375 55 -115.640625 59.230469 -117.757812 C 62.050781 -118.460938 64.167969 -119.167969 65.578125 -119.167969 C 66.28125 -119.167969 66.28125 -119.167969 66.988281 -119.167969 C 69.101562 -116.347656 64.167969 -95.191406 52.886719 -64.167969 C 40.191406 -28.910156 28.207031 18.332031 24.679688 48.65625 C 20.449219 78.269531 22.5625 123.398438 27.5 136.089844 C 32.4375 148.078125 40.191406 154.425781 48.65625 154.425781 C 53.589844 154.425781 59.230469 152.308594 64.167969 147.375 C 77.566406 133.269531 82.5 105.769531 90.257812 7.757812 C 98.71875 -106.476562 96.601562 -95.191406 111.410156 -124.808594 L 124.105469 -150.898438 L 142.4375 -157.246094 C 185.449219 -169.9375 224.234375 -176.285156 256.667969 -176.285156 C 314.488281 -176.285156 360.324219 -159.359375 361.734375 -95.898438 C 363.144531 -66.988281 358.914062 -43.011719 345.515625 -11.28125 L 336.347656 12.691406 L 297.566406 35.257812 C 172.757812 108.589844 90.257812 159.359375 47.242188 190.386719 C 1.410156 223.527344 -29.617188 260.898438 -29.617188 282.757812 C -29.617188 301.796875 -11.28125 312.375 5.640625 312.375 Z M 45.128906 275.003906 C 37.371094 277.117188 23.972656 279.9375 16.21875 280.644531 L 1.410156 282.054688 L 4.9375 274.296875 C 22.5625 241.15625 86.027344 195.324219 241.15625 103.65625 C 265.835938 88.847656 289.808594 74.746094 294.042969 72.628906 C 297.566406 69.808594 301.09375 69.101562 301.09375 69.808594 C 301.09375 74.746094 260.195312 123.398438 235.515625 147.375 C 185.449219 197.4375 112.820312 251.734375 45.128906 275.003906 Z M 229.875 -301.09375 C 219.296875 -287.695312 205.195312 -272.183594 198.847656 -265.835938 C 192.5 -260.195312 189.679688 -257.375 188.976562 -257.375 C 188.269531 -257.375 190.386719 -259.488281 193.207031 -263.71875 C 197.4375 -270.066406 243.273438 -326.476562 246.796875 -326.476562 C 248.914062 -326.476562 242.566406 -316.605469 229.875 -301.09375 Z M 229.875 -301.09375 "/></g></g></g><g fill="#000000" fill-opacity="1"><g transform="translate(2471.769906, 698.249916)"><g><path d="M 31.027344 46.539062 C 38.078125 47.949219 47.949219 49.359375 57.820312 49.359375 C 98.015625 49.359375 134.679688 30.320312 166.410156 7.050781 C 202.375 -19.742188 273.59375 -95.191406 273.59375 -105.769531 C 273.59375 -113.527344 265.835938 -120.578125 257.375 -120.578125 C 251.027344 -120.578125 247.503906 -117.757812 231.988281 -100.835938 C 150.898438 -12.691406 106.476562 17.628906 57.117188 17.628906 C 9.167969 17.628906 -6.347656 -26.089844 16.921875 -97.308594 L 22.5625 -116.347656 L 31.730469 -114.9375 C 33.140625 -114.9375 35.257812 -114.230469 36.667969 -114.230469 C 70.511719 -114.230469 107.886719 -178.398438 110 -210.835938 C 110.707031 -224.9375 110 -227.054688 105.066406 -231.988281 C 99.425781 -237.628906 94.488281 -241.15625 88.140625 -241.15625 C 77.566406 -241.15625 65.578125 -232.695312 50.066406 -217.179688 C 21.859375 -188.269531 -3.527344 -142.4375 -17.628906 -94.488281 C -23.269531 -76.859375 -23.972656 -69.808594 -23.972656 -43.71875 C -23.972656 -16.921875 -23.972656 -11.28125 -19.039062 0 C -9.871094 22.5625 9.167969 40.191406 31.027344 46.539062 Z M 55 -158.65625 C 48.65625 -150.898438 41.601562 -143.847656 38.78125 -143.847656 C 38.078125 -143.847656 38.078125 -144.550781 38.078125 -145.257812 C 38.078125 -150.898438 73.335938 -200.964844 76.15625 -198.847656 C 77.566406 -196.734375 63.460938 -169.230469 55 -158.65625 Z M 55 -158.65625 "/></g></g></g><g fill="#000000" fill-opacity="1"><g transform="translate(2800.363078, 698.249916)"><g><path d="M 126.21875 50.066406 C 146.667969 50.066406 165 31.730469 191.796875 -14.101562 C 208.015625 -42.308594 234.808594 -98.015625 234.808594 -103.65625 C 234.808594 -108.589844 225.644531 -119.871094 222.117188 -119.871094 C 211.539062 -119.871094 208.015625 -114.230469 186.15625 -71.921875 C 157.246094 -15.511719 135.386719 17.628906 126.21875 17.628906 C 124.808594 17.628906 124.105469 17.628906 123.398438 16.21875 C 109.296875 -6.347656 109.296875 -91.667969 124.105469 -169.9375 C 126.21875 -183.335938 127.628906 -196.027344 126.925781 -198.144531 C 124.105469 -205.898438 117.757812 -210.128906 110.707031 -210.128906 C 106.476562 -210.128906 102.949219 -208.71875 99.425781 -205.195312 C 97.308594 -202.375 90.257812 -190.386719 84.617188 -178.398438 C 78.269531 -167.117188 73.335938 -156.539062 72.628906 -155.835938 C 71.921875 -155.835938 67.691406 -159.359375 62.757812 -163.589844 C 55 -170.644531 52.179688 -172.054688 43.011719 -172.054688 C 28.207031 -172.054688 16.921875 -163.589844 6.347656 -145.964844 C -10.578125 -117.757812 -22.5625 -67.691406 -20.449219 -34.550781 C -19.039062 -7.757812 -10.578125 4.9375 4.230469 4.9375 C 20.449219 4.9375 29.617188 -6.347656 60.640625 -64.871094 C 71.921875 -86.027344 81.796875 -103.65625 81.796875 -103.65625 C 81.796875 -103.65625 81.796875 -86.730469 81.089844 -64.871094 C 80.386719 -19.742188 83.910156 4.9375 94.488281 26.796875 C 100.835938 42.308594 109.296875 50.066406 126.21875 50.066406 Z M 31.730469 -78.269531 C 21.152344 -58.527344 11.988281 -42.308594 11.28125 -42.308594 C 9.871094 -42.308594 10.578125 -58.527344 14.101562 -77.566406 C 19.742188 -110 33.847656 -142.4375 42.308594 -142.4375 C 44.421875 -142.4375 47.949219 -138.910156 50.769531 -133.976562 C 57.117188 -124.105469 58.527344 -128.335938 31.730469 -78.269531 Z M 31.730469 -78.269531 "/></g></g></g><g fill="#000000" fill-opacity="1"><g transform="translate(3088.763507, 698.249916)"><g><path d="M 153.015625 57.117188 C 155.835938 57.820312 159.359375 58.527344 162.886719 58.527344 C 176.285156 58.527344 192.5 51.476562 207.308594 38.78125 C 224.9375 23.972656 258.785156 -17.628906 284.875 -56.410156 C 298.273438 -76.15625 310.964844 -94.488281 313.078125 -95.898438 C 321.542969 -102.949219 312.375 -120.578125 300.386719 -120.578125 C 291.925781 -120.578125 285.578125 -114.230469 262.308594 -78.976562 C 251.027344 -62.757812 188.976562 26.089844 166.410156 26.089844 C 164.296875 26.089844 162.179688 25.386719 160.769531 23.269531 C 148.078125 5.640625 150.195312 -83.207031 165.707031 -174.167969 C 169.9375 -201.667969 170.644531 -206.605469 167.820312 -212.949219 C 165 -219.296875 160.769531 -222.824219 153.71875 -222.824219 C 145.257812 -222.824219 139.617188 -215.066406 123.398438 -187.566406 C 72.628906 -99.425781 33.140625 -35.257812 17.628906 -18.332031 L 9.167969 -9.167969 L 7.757812 -17.628906 C 2.820312 -45.832031 27.5 -154.425781 39.488281 -158.65625 C 52.179688 -162.886719 55 -177.695312 45.832031 -187.566406 C 41.601562 -191.089844 38.078125 -193.207031 34.550781 -193.207031 C 26.089844 -193.207031 17.628906 -184.039062 9.167969 -165 C -13.398438 -116.347656 -28.910156 -42.308594 -23.269531 -9.871094 C -21.152344 4.9375 -13.398438 26.089844 4.9375 26.089844 C 7.050781 26.089844 9.871094 25.386719 13.398438 24.679688 C 32.4375 19.039062 55 -10.578125 102.949219 -90.257812 C 117.050781 -112.820312 123.398438 -122.695312 124.808594 -122.695312 C 124.808594 -122.695312 124.808594 -121.988281 124.808594 -120.578125 C 118.460938 -81.089844 118.460938 -13.398438 124.105469 14.101562 C 129.039062 35.960938 139.617188 51.476562 153.015625 57.117188 Z M 153.015625 57.117188 "/></g></g></g><g fill="#000000" fill-opacity="1"><g transform="translate(3458.254378, 698.249916)"><g><path d="M 9.167969 171.347656 C 13.398438 175.578125 16.21875 177.695312 19.039062 177.695312 C 20.449219 177.695312 22.5625 176.988281 24.679688 175.578125 C 33.847656 170.644531 34.550781 165.707031 28.207031 143.847656 C 19.742188 109.296875 17.628906 68.398438 19.039062 -10.578125 C 21.152344 -107.179688 26.796875 -194.617188 40.191406 -303.207031 C 47.949219 -370.195312 45.832031 -364.554688 66.988281 -370.195312 C 160.769531 -397.695312 239.746094 -413.210938 275.003906 -413.210938 C 281.347656 -413.210938 286.285156 -413.210938 289.808594 -411.796875 C 293.335938 -410.386719 296.863281 -410.386719 299.683594 -410.386719 C 305.324219 -410.386719 310.257812 -412.503906 312.375 -417.441406 C 318.015625 -430.132812 306.027344 -442.121094 284.167969 -444.941406 C 281.347656 -444.941406 278.527344 -445.644531 275.003906 -445.644531 C 245.386719 -445.644531 188.269531 -435.066406 114.230469 -415.324219 C 87.4375 -408.976562 67.691406 -404.746094 67.691406 -406.15625 C 67.691406 -407.566406 69.808594 -413.914062 71.21875 -420.964844 C 78.269531 -446.351562 74.039062 -459.042969 59.230469 -459.042969 C 48.65625 -459.042969 40.191406 -447.054688 30.320312 -416.03125 L 21.859375 -389.941406 L -5.640625 -381.476562 C -68.398438 -361.734375 -123.398438 -339.167969 -135.386719 -327.183594 C -141.730469 -321.542969 -142.4375 -310.964844 -136.796875 -304.617188 C -134.679688 -302.503906 -130.449219 -301.09375 -126.925781 -301.09375 C -123.398438 -301.09375 -119.871094 -302.503906 -117.757812 -304.617188 C -112.117188 -311.667969 -78.976562 -325.066406 -32.4375 -340.582031 C -7.050781 -349.042969 14.101562 -355.386719 14.808594 -354.683594 C 14.808594 -353.976562 12.691406 -337.054688 9.871094 -316.605469 C -4.230469 -212.246094 -13.398438 -74.039062 -13.398438 23.269531 C -13.398438 105.066406 -5.640625 156.539062 9.167969 171.347656 Z M 9.167969 171.347656 "/></g></g></g><g fill="#000000" fill-opacity="1"><g transform="translate(3609.858734, 698.249916)"><g><path d="M 28.207031 45.128906 C 31.730469 45.832031 35.257812 46.539062 38.78125 46.539062 C 52.886719 46.539062 68.398438 39.488281 80.386719 27.5 C 106.476562 2.820312 163.589844 -88.140625 163.589844 -104.359375 C 163.589844 -110 155.128906 -120.578125 149.488281 -120.578125 C 141.027344 -120.578125 136.796875 -115.640625 125.515625 -93.78125 C 115.640625 -74.746094 64.167969 14.808594 40.898438 14.808594 C 38.78125 14.808594 37.371094 14.101562 35.257812 12.691406 C 16.921875 0.707031 11.988281 -76.15625 25.386719 -141.730469 C 31.730469 -173.464844 43.011719 -208.015625 49.359375 -215.769531 C 59.9375 -228.464844 52.179688 -245.386719 40.898438 -245.386719 C 15.511719 -245.386719 -6.347656 -141.730469 -9.167969 -123.398438 C -15.511719 -86.730469 -16.21875 -33.847656 -10.578125 -11.28125 C -2.820312 18.332031 11.28125 40.191406 28.207031 45.128906 Z M 63.460938 -306.734375 C 68.398438 -301.796875 74.039062 -299.683594 79.679688 -299.683594 C 88.140625 -299.683594 97.308594 -304.617188 101.539062 -313.078125 C 105.066406 -320.835938 105.769531 -327.183594 102.246094 -334.234375 C 99.425781 -340.582031 91.667969 -344.8125 78.976562 -346.222656 C 63.460938 -346.222656 59.9375 -344.105469 57.820312 -325.773438 C 56.410156 -314.488281 57.117188 -313.078125 63.460938 -306.734375 Z M 63.460938 -306.734375 "/></g></g></g><g fill="#000000" fill-opacity="1"><g transform="translate(3827.040842, 698.249916)"><g><path d="M -32.4375 284.875 C -27.5 290.515625 -21.859375 293.335938 -15.511719 293.335938 C 14.101562 293.335938 38.078125 229.167969 43.011719 206.605469 C 56.410156 153.015625 39.488281 102.246094 2.820312 80.386719 L -7.050781 74.746094 L -2.117188 70.511719 C 1.410156 68.398438 19.742188 55 38.78125 41.601562 C 57.820312 27.5 87.4375 5.640625 102.949219 -7.050781 C 139.617188 -36.667969 202.375 -93.78125 205.195312 -99.425781 C 208.015625 -108.589844 199.554688 -119.871094 188.976562 -119.871094 C 187.566406 -119.871094 186.859375 -119.167969 185.449219 -119.167969 C 182.628906 -117.757812 164.296875 -102.949219 145.257812 -85.320312 C 104.359375 -47.949219 78.976562 -26.796875 35.257812 4.9375 C 9.871094 23.972656 0.707031 30.320312 -2.117188 30.320312 C -3.527344 30.320312 -3.527344 28.207031 -2.820312 24.679688 C 13.398438 -95.898438 28.910156 -169.9375 49.359375 -234.105469 C 55 -250.324219 57.117188 -255.964844 58.527344 -255.964844 C 59.230469 -255.964844 59.9375 -255.257812 60.640625 -253.847656 C 62.757812 -250.324219 66.28125 -248.914062 71.921875 -248.914062 C 81.796875 -248.914062 83.910156 -253.144531 93.078125 -286.285156 C 102.246094 -318.722656 102.246094 -328.59375 93.078125 -337.757812 C 88.847656 -341.992188 86.730469 -344.105469 83.207031 -344.105469 C 81.796875 -344.105469 80.386719 -343.402344 78.976562 -343.402344 C 66.988281 -341.285156 55.707031 -327.183594 42.308594 -299.683594 C 9.871094 -234.808594 -17.628906 -119.167969 -35.257812 26.089844 L -38.78125 57.117188 L -48.65625 62.757812 C -53.589844 65.578125 -64.167969 69.101562 -72.628906 70.511719 C -127.628906 81.089844 -187.566406 112.820312 -194.617188 135.386719 C -197.4375 144.550781 -195.324219 152.308594 -187.566406 157.949219 C -184.039062 160.066406 -180.515625 161.476562 -175.578125 161.476562 C -159.359375 161.476562 -129.039062 146.667969 -53.589844 103.65625 C -49.359375 101.539062 -45.128906 99.425781 -44.421875 100.128906 C -43.71875 100.835938 -44.421875 111.410156 -45.832031 122.695312 C -46.539062 134.679688 -47.949219 167.117188 -47.949219 194.617188 C -47.949219 253.847656 -45.128906 272.183594 -32.4375 284.875 Z M 2.820312 227.757812 C -1.410156 236.925781 -6.347656 246.796875 -8.460938 249.617188 L -12.691406 255.257812 L -14.808594 243.976562 C -16.921875 229.167969 -14.101562 114.230469 -11.28125 111.410156 C -8.460938 107.886719 6.347656 126.21875 10.578125 138.207031 C 19.742188 164.296875 16.921875 193.914062 2.820312 227.757812 Z M 2.820312 227.757812 "/></g></g></g><g fill="#000000" fill-opacity="1"><g transform="translate(4087.235888, 698.249916)"><g><path d="M 153.015625 57.117188 C 155.835938 57.820312 159.359375 58.527344 162.886719 58.527344 C 176.285156 58.527344 192.5 51.476562 207.308594 38.78125 C 224.9375 23.972656 258.785156 -17.628906 284.875 -56.410156 C 298.273438 -76.15625 310.964844 -94.488281 313.078125 -95.898438 C 321.542969 -102.949219 312.375 -120.578125 300.386719 -120.578125 C 291.925781 -120.578125 285.578125 -114.230469 262.308594 -78.976562 C 251.027344 -62.757812 188.976562 26.089844 166.410156 26.089844 C 164.296875 26.089844 162.179688 25.386719 160.769531 23.269531 C 148.078125 5.640625 150.195312 -83.207031 165.707031 -174.167969 C 169.9375 -201.667969 170.644531 -206.605469 167.820312 -212.949219 C 165 -219.296875 160.769531 -222.824219 153.71875 -222.824219 C 145.257812 -222.824219 139.617188 -215.066406 123.398438 -187.566406 C 72.628906 -99.425781 33.140625 -35.257812 17.628906 -18.332031 L 9.167969 -9.167969 L 7.757812 -17.628906 C 2.820312 -45.832031 27.5 -154.425781 39.488281 -158.65625 C 52.179688 -162.886719 55 -177.695312 45.832031 -187.566406 C 41.601562 -191.089844 38.078125 -193.207031 34.550781 -193.207031 C 26.089844 -193.207031 17.628906 -184.039062 9.167969 -165 C -13.398438 -116.347656 -28.910156 -42.308594 -23.269531 -9.871094 C -21.152344 4.9375 -13.398438 26.089844 4.9375 26.089844 C 7.050781 26.089844 9.871094 25.386719 13.398438 24.679688 C 32.4375 19.039062 55 -10.578125 102.949219 -90.257812 C 117.050781 -112.820312 123.398438 -122.695312 124.808594 -122.695312 C 124.808594 -122.695312 124.808594 -121.988281 124.808594 -120.578125 C 118.460938 -81.089844 118.460938 -13.398438 124.105469 14.101562 C 129.039062 35.960938 139.617188 51.476562 153.015625 57.117188 Z M 153.015625 57.117188 "/></g></g></g><g fill="#000000" fill-opacity="1"><g transform="translate(4456.726579, 698.249916)"><g><path d="M -0.707031 121.988281 C 2.820312 125.515625 7.757812 126.925781 11.988281 126.925781 C 16.21875 126.925781 19.742188 125.515625 22.5625 121.285156 C 26.089844 116.347656 26.089844 114.9375 21.859375 100.835938 C 18.332031 87.4375 17.628906 76.859375 18.332031 20.449219 C 18.332031 -16.921875 19.742188 -64.871094 21.859375 -95.191406 L 26.089844 -145.964844 L 39.488281 -169.9375 C 78.269531 -239.746094 110.707031 -319.425781 124.105469 -378.65625 C 132.566406 -414.621094 133.269531 -457.632812 125.515625 -485.132812 C 121.988281 -496.414062 111.410156 -509.109375 102.949219 -511.222656 C 101.539062 -511.929688 99.425781 -511.929688 98.015625 -511.929688 C 84.617188 -511.929688 72.628906 -499.234375 59.9375 -473.851562 C 31.027344 -416.03125 13.398438 -336.347656 -1.410156 -193.914062 C -6.347656 -149.488281 -6.347656 -148.785156 -12.691406 -142.4375 C -21.152344 -134.679688 -21.152344 -128.335938 -14.101562 -121.285156 L -8.460938 -115.640625 L -11.28125 -85.320312 C -12.691406 -69.101562 -14.101562 -22.5625 -14.101562 16.921875 C -14.101562 81.089844 -13.398438 91.667969 -9.871094 102.949219 C -7.757812 110 -3.527344 118.460938 -0.707031 121.988281 Z M 59.230469 -282.757812 C 44.421875 -244.683594 36.667969 -229.167969 35.257812 -229.167969 C 34.550781 -229.167969 34.550781 -229.875 34.550781 -230.578125 C 34.550781 -232.695312 36.667969 -251.027344 39.488281 -270.066406 C 50.066406 -349.746094 69.101562 -422.375 89.550781 -463.273438 C 91.667969 -467.503906 93.078125 -469.621094 94.488281 -469.621094 C 97.308594 -469.621094 98.015625 -460.453125 98.015625 -439.300781 C 98.015625 -395.582031 87.4375 -353.273438 59.230469 -282.757812 Z M 59.230469 -282.757812 "/></g></g></g><g fill="#000000" fill-opacity="1"><g transform="translate(4616.087284, 698.249916)"><g><path d="M 35.960938 81.089844 C 40.191406 83.207031 44.421875 84.617188 45.832031 84.617188 C 51.476562 84.617188 60.640625 79.679688 62.050781 76.15625 C 62.757812 74.039062 64.871094 69.808594 67.691406 66.988281 C 69.808594 63.460938 71.21875 59.230469 71.21875 57.117188 C 71.21875 48.65625 60.640625 45.832031 54.296875 45.832031 C 28.910156 46.539062 15.511719 72.628906 35.960938 81.089844 Z M 52.886719 -35.257812 C 55 -32.4375 59.230469 -31.027344 63.460938 -31.027344 C 66.28125 -31.027344 69.808594 -32.4375 71.921875 -34.550781 C 74.039062 -37.371094 74.746094 -47.242188 75.449219 -65.578125 C 75.449219 -95.191406 78.976562 -119.871094 90.257812 -176.285156 C 113.527344 -294.746094 164.296875 -495.003906 196.734375 -594.429688 C 205.898438 -621.929688 207.308594 -624.042969 212.246094 -623.339844 C 215.066406 -623.339844 220.003906 -624.75 222.117188 -626.160156 C 227.054688 -628.980469 227.757812 -631.097656 227.757812 -652.953125 C 227.757812 -679.75 225.644531 -684.6875 213.65625 -684.6875 C 204.488281 -684.6875 199.554688 -678.339844 189.679688 -657.890625 C 157.246094 -590.902344 88.140625 -336.347656 57.117188 -172.054688 C 41.601562 -88.140625 40.191406 -49.359375 52.886719 -35.257812 Z M 52.886719 -35.257812 "/></g></g></g></svg>