<svg xmlns="http://www.w3.org/2000/svg" xmlns:xlink="http://www.w3.org/1999/xlink" width="1080" zoomAndPan="magnify" viewBox="0 0 810 809.999993" height="1080" preserveAspectRatio="xMidYMid meet" version="1.0"><path fill="#d8b256" d="M 405 315.234375 C 355.558594 315.234375 315.234375 355.558594 315.234375 405 C 315.234375 454.441406 355.558594 494.765625 405 494.765625 C 454.441406 494.765625 494.765625 454.441406 494.765625 405 C 494.765625 355.558594 454.441406 315.234375 405 315.234375 Z M 405 315.234375 " fill-opacity="1" fill-rule="nonzero"/><path fill="#d8b256" d="M 525.625 184.792969 L 284.375 184.792969 C 229.675781 184.792969 184.792969 229.324219 184.792969 284.375 L 184.792969 525.625 C 184.792969 580.324219 229.324219 625.207031 284.375 625.207031 L 525.625 625.207031 C 580.324219 625.207031 625.207031 580.675781 625.207031 525.625 L 625.207031 284.375 C 624.855469 229.324219 580.324219 184.792969 525.625 184.792969 Z M 405 540 C 330.3125 540 269.648438 479.335938 269.648438 404.648438 C 269.648438 329.960938 330.3125 269.296875 405 269.296875 C 479.6875 269.296875 540.351562 329.960938 540.351562 404.648438 C 540 479.335938 479.335938 540 405 540 Z M 549.816406 292.089844 C 531.933594 292.089844 517.207031 277.363281 517.207031 259.480469 C 517.207031 241.597656 531.933594 226.871094 549.816406 226.871094 C 567.703125 226.871094 582.429688 241.597656 582.429688 259.480469 C 582.429688 277.714844 568.050781 292.089844 549.816406 292.089844 Z M 549.816406 292.089844 " fill-opacity="1" fill-rule="nonzero"/><path fill="#d8b256" d="M 405 0 C 181.285156 0 0 181.285156 0 405 C 0 628.714844 181.285156 810 405 810 C 628.714844 810 810 628.714844 810 405 C 809.648438 181.285156 628.363281 0 405 0 Z M 670.441406 525.625 C 670.441406 605.570312 605.21875 670.792969 525.273438 670.792969 L 284.375 670.792969 C 204.429688 670.792969 139.207031 605.570312 139.207031 525.625 L 139.207031 284.375 C 139.207031 204.429688 204.429688 139.207031 284.375 139.207031 L 525.625 139.207031 C 605.570312 139.207031 670.792969 204.429688 670.792969 284.375 L 670.792969 525.625 Z M 670.441406 525.625 " fill-opacity="1" fill-rule="nonzero"/></svg>