<svg xmlns="http://www.w3.org/2000/svg" xmlns:xlink="http://www.w3.org/1999/xlink" width="1080" zoomAndPan="magnify" viewBox="0 0 810 809.999993" height="1080" preserveAspectRatio="xMidYMid meet" version="1.0"><defs><clipPath id="346b475792"><path d="M 405 0 C 181.324219 0 0 181.324219 0 405 C 0 628.675781 181.324219 810 405 810 C 628.675781 810 810 628.675781 810 405 C 810 181.324219 628.675781 0 405 0 " clip-rule="nonzero"/></clipPath><clipPath id="9c8afee136"><path d="M 82.707031 52.339844 L 726.945312 52.339844 L 726.945312 810 L 82.707031 810 Z M 82.707031 52.339844 " clip-rule="nonzero"/></clipPath></defs><g clip-path="url(#346b475792)"><rect x="-81" width="972" fill="#d8b256" y="-80.999999" height="971.999992" fill-opacity="1"/></g><path fill="#ffffff" d="M 499.554688 592.976562 C 538.941406 687.292969 522.347656 738.714844 530.378906 767.871094 C 559.484375 873.539062 453.941406 823.878906 315.683594 829.359375 C 316.453125 813.613281 311.496094 785.855469 300.722656 776.074219 C 276.699219 754.257812 251.886719 720.757812 305.417969 669.996094 C 307.261719 668.25 317.289062 646.191406 319.082031 641.125 C 331.46875 606.121094 315.328125 576.640625 346.894531 567.613281 C 360.847656 563.621094 348.496094 546.097656 350.53125 548.707031 C 343.617188 539.839844 333.523438 525.171875 319.722656 494.742188 C 314.824219 485.359375 307.886719 474.300781 288.328125 477.9375 C 218.78125 490.863281 239.0625 455.839844 239.8125 454.488281 C 242.089844 450.371094 245.328125 449.816406 236.527344 448.582031 C 230.210938 447.695312 231.671875 437.175781 235.074219 435.1875 C 236.1875 434.53125 237.820312 433.398438 239.355469 433.085938 C 243.832031 432.175781 241.695312 429.613281 238.398438 427.824219 C 233.265625 425.039062 229.914062 413.1875 238.332031 411.742188 C 245.386719 408.539062 247.445312 405.863281 240.5625 402.074219 C 232.566406 397.675781 235.371094 389.71875 243.011719 383.101562 C 248.355469 378.476562 257.761719 371.796875 262.085938 367.285156 C 267.222656 361.925781 268.765625 353.144531 269.175781 347.917969 C 269.433594 344.621094 269.574219 340.34375 270.703125 336.492188 C 262.855469 326.679688 286.800781 317.246094 269.570312 318.683594 C 266.539062 318.933594 267.242188 322.246094 267 322.945312 C 264.832031 323.695312 263.574219 321.5625 262.015625 325.007812 C 263.035156 326.140625 258.726562 345.339844 255.554688 345.246094 C 252.609375 345.164062 244.023438 349.261719 243.742188 351.464844 C 243.480469 353.535156 238.847656 354.742188 236.613281 352.945312 C 238.238281 351.71875 238.796875 351.5 239.429688 349.671875 C 237.007812 349.234375 235.050781 348.394531 233.5625 348.742188 C 227.328125 350.199219 228.496094 349.777344 228.359375 346.84375 C 228.332031 346.195312 227.191406 346.121094 226.492188 345.707031 C 225.460938 345.097656 225.554688 344.914062 225.058594 343.933594 C 226.488281 342.585938 227.726562 341.769531 227.511719 340.3125 C 225.398438 340.210938 219.679688 340.652344 218.480469 340.03125 C 222.121094 337.863281 222.917969 333.984375 216.015625 331.960938 C 215.355469 328.492188 206.910156 331.304688 212.164062 325.359375 C 214.742188 322.4375 200.285156 326.132812 198.710938 326.132812 C 198.710938 310.871094 209.59375 314.515625 189.066406 308.414062 C 187.6875 308.003906 188.101562 308.234375 187.78125 307.636719 C 188.5625 306.648438 189.242188 305.847656 189.835938 305.207031 C 197.460938 296.90625 193.195312 301.320312 191.332031 299.585938 C 190.429688 298.746094 191.636719 296.921875 191.882812 295.253906 C 192.625 290.226562 199.226562 296.160156 188.695312 283.539062 C 180.359375 273.546875 205.96875 278.65625 200.421875 267.621094 C 198.855469 264.503906 205.394531 265.316406 195.335938 257.296875 C 194.492188 256.625 192.246094 237.175781 192.640625 234.636719 C 193.527344 228.96875 200.496094 222.390625 201.550781 220.660156 C 202.386719 219.28125 199.246094 218.816406 198.679688 216.550781 L 200.160156 215.992188 C 203.183594 214.835938 201.835938 213.4375 201.972656 212.132812 C 203.214844 211.863281 203.792969 212.25 205.328125 211.746094 C 200.585938 201.171875 186.613281 201.703125 208.273438 201.035156 C 212.953125 200.890625 210.304688 197.136719 208.785156 194.199219 C 209.539062 193.003906 209.328125 193.429688 210.738281 192.808594 C 211.988281 188.011719 208.09375 190.523438 213.84375 188.90625 C 214.1875 186.03125 212.328125 179.566406 220.085938 183.207031 C 228.175781 178.984375 227.453125 175.773438 228.660156 175.136719 C 232.734375 172.988281 236.414062 181.554688 238.921875 171.703125 C 239.601562 169.042969 246.257812 171.214844 253.078125 158.4375 C 272.597656 157.050781 261.605469 156.367188 265.117188 146.210938 C 282.710938 140.121094 259.917969 155.519531 272.40625 138.710938 C 276.089844 133.75 277.019531 144.867188 276.101562 125.304688 C 276.175781 125.277344 295.390625 127.671875 287.035156 114.046875 C 289.863281 105.742188 292.722656 108.597656 293.460938 107.371094 C 299.941406 106.8125 294.496094 119.257812 308.757812 115.386719 C 315.378906 113.589844 317.429688 126.382812 326.574219 116.460938 C 329.617188 113.160156 343.109375 126.324219 344.390625 126.324219 C 345.289062 121.984375 351.535156 126.039062 354.390625 127.082031 C 353.769531 126.109375 353.8125 125.671875 352.558594 125.8125 C 352.558594 129.246094 361.613281 134.09375 369.40625 124.933594 C 372.910156 120.8125 385.234375 124.316406 379.359375 112.816406 C 379.714844 112.742188 375.59375 113.207031 381.15625 112.347656 C 379.679688 109.226562 379.21875 110.777344 376.585938 108.953125 C 376.585938 107.433594 378.378906 107.863281 379.667969 107.316406 C 388.941406 103.402344 383.234375 99.917969 377.34375 97.03125 C 377.386719 96.828125 386.757812 94.53125 388.453125 94.320312 C 399.003906 92.988281 393.496094 81.308594 412.042969 106.039062 C 411.597656 91.242188 419.148438 106.417969 422.695312 106.257812 C 425 102.171875 428.191406 108.621094 433.0625 101.203125 C 436.96875 107.164062 433.488281 107.507812 444.824219 106.035156 L 444.925781 103.832031 C 444.984375 102.628906 444.792969 98.660156 444.925781 97.503906 C 452.949219 95.15625 456.726562 110.011719 459.824219 101.71875 C 461.394531 97.484375 480.191406 113.171875 479.742188 114.410156 C 477.429688 114.886719 474.265625 114.003906 472.757812 115.226562 C 474.054688 116.925781 477.292969 117.9375 479.328125 118.464844 C 481.066406 123.5 478.167969 119.617188 482.300781 123.757812 C 481.230469 124.511719 473.703125 123.117188 484.875 132.082031 L 486.207031 133.160156 C 486.210938 133.160156 502.992188 131.171875 506.277344 131.308594 C 509.402344 131.441406 510.675781 130.375 510.960938 127.046875 C 516.117188 125.265625 507.4375 134.03125 521.890625 130.027344 C 524.554688 129.289062 524.390625 133.503906 532.011719 136.347656 C 540.949219 139.683594 538.015625 141.332031 537.65625 150.316406 C 540.105469 151.191406 539.328125 155.265625 538.929688 155.921875 C 534.574219 156.226562 528.289062 167.074219 546.242188 167.074219 L 548.070312 167.074219 C 555.195312 167.074219 552.234375 169.933594 557.039062 172.929688 C 559.796875 164.71875 552.964844 166.660156 564.089844 170.613281 C 555.304688 176.269531 569.710938 177.980469 556.042969 182.945312 C 550.597656 184.921875 557.28125 189.554688 558.550781 192.402344 C 561.117188 203.617188 564.957031 194.734375 574.261719 200.578125 C 581.804688 205.3125 580.890625 189.445312 598.402344 205.40625 C 606.015625 212.34375 613.578125 209.703125 617.957031 213.207031 C 619.441406 214.394531 621.09375 213.792969 622.886719 213.980469 C 625.234375 220.835938 612.152344 218.3125 609.546875 218.914062 C 609.171875 220.371094 609.726562 222.554688 609.105469 223.765625 C 591.792969 226.035156 609.34375 226.335938 590.742188 232.933594 C 579.117188 237.066406 601.988281 241.726562 606.515625 245.320312 C 608.667969 247.023438 610.808594 248.316406 612.464844 249.636719 C 612.25 252.414062 628.691406 258.503906 621.867188 263.09375 C 617.917969 265.742188 613.511719 261.980469 616.445312 270.679688 C 620.84375 278.25 611.929688 281.371094 621.042969 287.457031 C 621.375 287.679688 622.535156 288.816406 622.835938 289.148438 L 621.816406 290.167969 C 616.410156 293.316406 623.632812 296.804688 618.015625 297.21875 C 616.359375 299.636719 632.476562 306.226562 614.929688 309.1875 C 619.734375 320.230469 611.382812 321.417969 616.011719 324.910156 C 617.792969 325.746094 617.261719 325.242188 617.746094 325.984375 C 609.265625 330.113281 591.179688 329.246094 598.347656 334.15625 C 597.578125 337.152344 592.941406 339.75 593.472656 341.449219 C 596.890625 341.953125 603.703125 360.28125 588.226562 366.992188 C 585.929688 367.988281 590.808594 379.320312 584.738281 385.277344 L 584.125 386.511719 C 582.703125 400.242188 590.421875 393.050781 581.660156 403.210938 C 577.597656 407.914062 585.59375 415.542969 575.550781 415.234375 C 575.550781 397.714844 570.625 413.453125 570.625 403.828125 C 568.566406 403.828125 566.511719 403.828125 564.460938 403.828125 C 564.460938 430.609375 567.617188 419.632812 555.167969 430.394531 C 555.335938 430.71875 559.316406 432.597656 560.097656 432.964844 C 561.125 436.910156 549.859375 443.90625 549.675781 444.832031 C 556.144531 457.765625 540.339844 463.917969 538.890625 465.511719 C 538.03125 465.484375 537.179688 465.484375 536.53125 465.484375 C 536.730469 452.957031 538.402344 462.742188 533.140625 457.980469 C 531.300781 456.3125 538.964844 454.71875 527.191406 455.003906 C 524.226562 455.074219 526.308594 454.261719 525.535156 452.023438 C 521.578125 450.652344 519.058594 453.773438 518.609375 457.46875 C 521.234375 457.628906 523.734375 457.292969 526.046875 457.523438 C 525.625 458.273438 523.472656 459.902344 522.15625 461.679688 C 522.328125 461.769531 527.136719 461.832031 526.875 464.867188 C 526.140625 464.984375 518.898438 473.816406 519.253906 474.089844 C 520.066406 476.339844 508.910156 480.980469 506.03125 480.230469 C 505.710938 478.984375 505.632812 477.929688 506.542969 476.988281 C 504.445312 475.007812 494.359375 471.660156 491.21875 470.726562 C 493.207031 462.984375 476.515625 468.914062 477.636719 472.160156 C 488.292969 474.6875 483.6875 475.242188 474.238281 480.953125 C 472.347656 482.09375 471.738281 481.265625 469.988281 481.488281 C 471.246094 481.039062 472.039062 480.84375 471.703125 479.691406 C 469.503906 479.4375 464.609375 479.667969 462.179688 479.667969 C 461.898438 475.800781 464.035156 476.328125 463.308594 474.222656 C 460.078125 473.105469 460.96875 468.722656 460.949219 461.941406 C 460.941406 460.503906 460.960938 460.71875 461.722656 459.371094 C 459.179688 454.941406 455.320312 448.84375 458.375 444.980469 C 459.632812 443.390625 453.621094 431.089844 444.925781 443.285156 C 442.257812 447.039062 437.285156 454.050781 432.628906 455.699219 C 431.347656 457.113281 426.675781 454.558594 425.65625 453.09375 C 417.03125 459.125 419.074219 484.546875 427.667969 493.9375 C 445.808594 513.761719 490.5 571.296875 499.554688 592.976562 " fill-opacity="1" fill-rule="evenodd"/><g clip-path="url(#9c8afee136)"><path stroke-linecap="butt" transform="matrix(0.0487103, 0, 0, -0.0487427, 82.707107, 846.931609)" fill="none" stroke-linejoin="miter" d="M 2.003277 16299.988528 L 13224.079516 16299.988528 L 13224.079516 2.042934 L 2.003277 2.042934 Z M 2.003277 16299.988528 " stroke="#ffffff" stroke-width="3.945" stroke-opacity="1" stroke-miterlimit="22.926001"/></g></svg>