<svg xmlns="http://www.w3.org/2000/svg" xmlns:xlink="http://www.w3.org/1999/xlink" width="1080" zoomAndPan="magnify" viewBox="0 0 810 809.999993" height="1080" preserveAspectRatio="xMidYMid meet" version="1.0"><path fill="#d8b256" d="M 405 0 C 181.277344 0 0 181.277344 0 405 C 0 628.722656 181.277344 810 405 810 C 628.722656 810 810 628.722656 810 405 C 810 181.277344 628.722656 0 405 0 Z M 614.789062 561.007812 C 614.789062 574.613281 608.957031 587.574219 598.914062 596.808594 C 588.871094 606.042969 575.261719 610.578125 561.652344 609.28125 C 515 604.90625 469.800781 592.597656 427.519531 572.507812 C 386.371094 552.90625 349.273438 526.660156 316.871094 494.425781 C 284.632812 462.1875 258.226562 424.925781 238.789062 383.777344 C 218.699219 341.496094 206.226562 296.460938 202.015625 249.640625 C 201.851562 248.183594 201.851562 246.726562 201.851562 245.269531 C 201.851562 233.117188 206.386719 221.453125 214.488281 212.382812 C 223.722656 202.339844 236.683594 196.507812 250.289062 196.507812 L 315.414062 196.507812 C 340.199219 196.507812 360.773438 214.972656 363.527344 239.4375 C 365.148438 253.855469 368.0625 268.109375 372.277344 281.878906 C 377.621094 299.214844 372.925781 317.84375 360.289062 330.480469 L 333.882812 356.886719 C 361.585938 407.429688 403.703125 449.550781 454.246094 477.253906 L 480.652344 450.847656 C 493.289062 438.210938 511.921875 433.511719 529.253906 438.859375 C 543.023438 443.070312 557.28125 445.984375 571.699219 447.605469 C 596.160156 450.359375 614.628906 471.097656 614.628906 495.71875 L 614.628906 561.007812 Z M 614.789062 561.007812 " fill-opacity="1" fill-rule="nonzero"/></svg>