<svg xmlns="http://www.w3.org/2000/svg" xmlns:xlink="http://www.w3.org/1999/xlink" width="6912" zoomAndPan="magnify" viewBox="0 0 5184 1079.999946" height="1440" preserveAspectRatio="xMidYMid meet" version="1.0"><defs><g/></defs><g fill="#000000" fill-opacity="1"><g transform="translate(3400.03389, 644.624921)"><g><path d="M -43.199219 130 C -41.199219 132 -39.199219 133.199219 -36.800781 133.199219 C -31.199219 133.199219 -29.199219 130.398438 -29.199219 122 C -29.199219 107.199219 -21.199219 86.800781 2.398438 39.601562 C 10 24 16.800781 11.199219 17.601562 11.199219 C 18 11.199219 18.800781 12.398438 19.199219 14 C 21.199219 20 32 36.800781 38 43.199219 C 45.601562 50.800781 51.601562 53.601562 59.199219 53.601562 C 70.398438 53.601562 82.800781 42.800781 80.800781 34.800781 C 80 31.199219 77.199219 29.199219 73.597656 29.199219 C 71.199219 29.199219 68.800781 30 66.398438 32 C 63.199219 34.800781 61.199219 36.398438 59.199219 36.398438 C 49.601562 36.398438 34 4.800781 31.199219 -2.398438 L 28.398438 -10.398438 L 35.601562 -23.601562 C 61.601562 -70.398438 90.800781 -116 107.199219 -134.398438 C 111.199219 -139.199219 111.597656 -139.597656 117.597656 -139.597656 C 123.199219 -139.597656 126.800781 -140 126.800781 -146.800781 C 126.800781 -153.597656 121.597656 -157.199219 115.199219 -157.199219 C 112 -157.199219 108.800781 -156.398438 106 -154.800781 C 91.597656 -146 65.597656 -110.800781 34.800781 -58 L 20 -32.800781 L 16 -48 C 8.398438 -77.199219 5.199219 -108.398438 8.800781 -121.199219 C 10.398438 -127.597656 10.398438 -128.800781 8.800781 -132 C 7.199219 -134.800781 4.398438 -136.398438 2 -136.398438 C 0.398438 -136.398438 -1.199219 -136 -2.398438 -135.199219 C -8 -131.597656 -8.800781 -124.800781 -8 -97.597656 C -7.199219 -70.398438 -4.800781 -55.601562 4 -26.800781 L 8.398438 -11.199219 L -3.199219 11.199219 C -18 38.800781 -32.800781 70.398438 -39.601562 88 C -47.601562 110 -48.800781 122.398438 -43.199219 130 Z M -43.199219 130 "/></g></g></g><g fill="#000000" fill-opacity="1"><g transform="translate(3556.832956, 644.624921)"><g><path d="M -3.199219 47.199219 C -0.398438 48.800781 2.800781 49.601562 6 49.601562 C 19.601562 49.601562 31.601562 34.398438 38 24 C 46 10 49.601562 -2.398438 49.601562 -18.398438 L 50 -32 L 53.601562 -30.800781 C 56 -30 60.800781 -30 66.398438 -30 C 73.597656 -30 82 -30.398438 86.398438 -31.601562 C 98 -34.800781 119.597656 -48.398438 124.398438 -56.398438 C 128 -61.601562 124 -68.398438 117.199219 -68.398438 C 114.800781 -68.398438 110.800781 -66.398438 104.800781 -62 C 90 -50.800781 83.597656 -48.398438 65.199219 -48.398438 C 51.601562 -48.398438 45.601562 -52 39.199219 -64 C 33.199219 -75.597656 27.199219 -81.199219 22 -81.199219 L 18.398438 -81.199219 L 24.800781 -94 C 32 -108.398438 38.398438 -117.199219 40.800781 -117.199219 C 43.199219 -117.199219 46.800781 -122.398438 46.800781 -125.199219 C 46.800781 -128.800781 42 -132.800781 38 -132.800781 C 14.800781 -132.800781 -12.398438 -46.398438 -16.398438 -28.398438 C -20 -12.398438 -20.398438 15.601562 -18 26.398438 C -15.601562 35.601562 -9.601562 44 -3.199219 47.199219 Z M 5.199219 32 C 4.398438 32 2.800781 29.199219 1.199219 25.601562 C -1.199219 20.398438 -1.601562 17.601562 -1.601562 2.800781 C -1.199219 -14.398438 2 -32.398438 8.800781 -53.601562 L 11.601562 -62.800781 L 13.601562 -58.398438 C 14.800781 -56 19.199219 -51.199219 22.800781 -47.199219 C 29.199219 -41.199219 30 -39.601562 30.800781 -32.800781 C 32.398438 -20.800781 31.601562 -8 28.800781 1.199219 C 26.398438 7.601562 13.199219 32 5.199219 32 Z M 5.199219 32 "/></g></g></g><g fill="#000000" fill-opacity="1"><g transform="translate(3712.432022, 644.624921)"><g><path d="M -43.199219 130 C -41.199219 132 -39.199219 133.199219 -36.800781 133.199219 C -31.199219 133.199219 -29.199219 130.398438 -29.199219 122 C -29.199219 107.199219 -21.199219 86.800781 2.398438 39.601562 C 10 24 16.800781 11.199219 17.601562 11.199219 C 18 11.199219 18.800781 12.398438 19.199219 14 C 21.199219 20 32 36.800781 38 43.199219 C 45.601562 50.800781 51.601562 53.601562 59.199219 53.601562 C 70.398438 53.601562 82.800781 42.800781 80.800781 34.800781 C 80 31.199219 77.199219 29.199219 73.597656 29.199219 C 71.199219 29.199219 68.800781 30 66.398438 32 C 63.199219 34.800781 61.199219 36.398438 59.199219 36.398438 C 49.601562 36.398438 34 4.800781 31.199219 -2.398438 L 28.398438 -10.398438 L 35.601562 -23.601562 C 61.601562 -70.398438 90.800781 -116 107.199219 -134.398438 C 111.199219 -139.199219 111.597656 -139.597656 117.597656 -139.597656 C 123.199219 -139.597656 126.800781 -140 126.800781 -146.800781 C 126.800781 -153.597656 121.597656 -157.199219 115.199219 -157.199219 C 112 -157.199219 108.800781 -156.398438 106 -154.800781 C 91.597656 -146 65.597656 -110.800781 34.800781 -58 L 20 -32.800781 L 16 -48 C 8.398438 -77.199219 5.199219 -108.398438 8.800781 -121.199219 C 10.398438 -127.597656 10.398438 -128.800781 8.800781 -132 C 7.199219 -134.800781 4.398438 -136.398438 2 -136.398438 C 0.398438 -136.398438 -1.199219 -136 -2.398438 -135.199219 C -8 -131.597656 -8.800781 -124.800781 -8 -97.597656 C -7.199219 -70.398438 -4.800781 -55.601562 4 -26.800781 L 8.398438 -11.199219 L -3.199219 11.199219 C -18 38.800781 -32.800781 70.398438 -39.601562 88 C -47.601562 110 -48.800781 122.398438 -43.199219 130 Z M -43.199219 130 "/></g></g></g><g fill="#000000" fill-opacity="1"><g transform="translate(3869.23108, 644.624921)"><g><path d="M -3.199219 47.199219 C -0.398438 48.800781 2.800781 49.601562 6 49.601562 C 19.601562 49.601562 31.601562 34.398438 38 24 C 46 10 49.601562 -2.398438 49.601562 -18.398438 L 50 -32 L 53.601562 -30.800781 C 56 -30 60.800781 -30 66.398438 -30 C 73.597656 -30 82 -30.398438 86.398438 -31.601562 C 98 -34.800781 119.597656 -48.398438 124.398438 -56.398438 C 128 -61.601562 124 -68.398438 117.199219 -68.398438 C 114.800781 -68.398438 110.800781 -66.398438 104.800781 -62 C 90 -50.800781 83.597656 -48.398438 65.199219 -48.398438 C 51.601562 -48.398438 45.601562 -52 39.199219 -64 C 33.199219 -75.597656 27.199219 -81.199219 22 -81.199219 L 18.398438 -81.199219 L 24.800781 -94 C 32 -108.398438 38.398438 -117.199219 40.800781 -117.199219 C 43.199219 -117.199219 46.800781 -122.398438 46.800781 -125.199219 C 46.800781 -128.800781 42 -132.800781 38 -132.800781 C 14.800781 -132.800781 -12.398438 -46.398438 -16.398438 -28.398438 C -20 -12.398438 -20.398438 15.601562 -18 26.398438 C -15.601562 35.601562 -9.601562 44 -3.199219 47.199219 Z M 5.199219 32 C 4.398438 32 2.800781 29.199219 1.199219 25.601562 C -1.199219 20.398438 -1.601562 17.601562 -1.601562 2.800781 C -1.199219 -14.398438 2 -32.398438 8.800781 -53.601562 L 11.601562 -62.800781 L 13.601562 -58.398438 C 14.800781 -56 19.199219 -51.199219 22.800781 -47.199219 C 29.199219 -41.199219 30 -39.601562 30.800781 -32.800781 C 32.398438 -20.800781 31.601562 -8 28.800781 1.199219 C 26.398438 7.601562 13.199219 32 5.199219 32 Z M 5.199219 32 "/></g></g></g><g fill="#000000" fill-opacity="1"><g transform="translate(4024.830153, 644.624921)"><g><path d="M 15.601562 34.398438 C 17.199219 35.601562 19.199219 36.800781 20.800781 36.800781 C 26 36.800781 28.800781 32.398438 36 11.601562 C 40.398438 0.398438 46.800781 -17.601562 50.800781 -28 C 60 -53.199219 60.398438 -55.601562 56.398438 -60.398438 C 54.398438 -62.398438 52.398438 -63.597656 49.601562 -63.597656 C 44 -63.597656 36 -58.398438 24 -47.601562 C 15.199219 -39.601562 14 -35.199219 18.800781 -30.800781 C 20.800781 -28.800781 22.398438 -28 24.398438 -28 C 26.398438 -28 28.800781 -29.199219 31.601562 -32.398438 L 36.398438 -37.199219 L 29.601562 -21.199219 C 20.398438 1.601562 13.199219 23.601562 13.199219 28 C 13.199219 30 14.398438 32.800781 15.601562 34.398438 Z M 15.601562 34.398438 "/></g></g></g><g fill="#000000" fill-opacity="1"><g transform="translate(4154.029364, 644.624921)"><g/></g></g><g fill="#000000" fill-opacity="1"><g transform="translate(4293.628591, 644.624921)"><g><path d="M 22.800781 152.800781 C 25.601562 154.398438 29.199219 155.199219 32.800781 155.199219 C 38.398438 155.199219 44.398438 153.597656 49.601562 150.800781 C 80.398438 134 113.597656 81.597656 131.199219 21.601562 C 133.597656 13.601562 136.800781 6 138 4.800781 C 145.597656 -2.398438 218 -47.601562 230.398438 -50 C 235.597656 -51.199219 238.796875 -54.398438 238.796875 -58.398438 C 238.796875 -62.800781 233.597656 -67.199219 228 -67.199219 C 220.796875 -67.199219 196.398438 -54 158 -30 C 149.199219 -24.398438 142 -19.601562 141.597656 -19.601562 C 141.597656 -19.601562 142.398438 -26 143.597656 -33.199219 C 152.800781 -86 153.199219 -139.199219 145.199219 -193.199219 C 142.398438 -213.597656 133.597656 -258.398438 130.800781 -269.199219 C 130 -271.597656 129.597656 -273.597656 129.597656 -274 C 130 -274 138 -276.398438 147.597656 -278.796875 C 168.398438 -284.398438 196 -291.199219 217.597656 -291.199219 C 221.597656 -291.199219 224.398438 -290.398438 230 -289.199219 C 234.796875 -288 238 -287.199219 240.796875 -287.199219 C 244.796875 -287.199219 246.398438 -288.796875 247.199219 -292 C 248.398438 -297.199219 246 -300.796875 239.199219 -304 C 234.398438 -306.796875 224.398438 -308 212.796875 -308 C 170 -308 80.398438 -279.199219 46 -259.199219 C 32 -251.199219 26.398438 -245.597656 26.398438 -240.398438 C 26.398438 -233.199219 30.398438 -232 36.800781 -232 C 37.601562 -232 40.800781 -234.398438 43.199219 -237.199219 C 48.800781 -243.199219 67.597656 -252.398438 92.800781 -261.597656 C 103.199219 -265.199219 112 -268 112.398438 -268 C 114 -268 116 -261.597656 119.199219 -244.796875 C 135.199219 -162 136.398438 -92.398438 123.597656 -23.601562 L 120 -5.601562 L 104 6.398438 C 54.800781 43.199219 20.800781 85.199219 12.800781 120 C 9.199219 134.800781 13.199219 147.597656 22.800781 152.800781 Z M 41.601562 134.398438 C 38 136 35.199219 137.199219 33.601562 137.199219 C 29.601562 137.199219 28.800781 133.199219 30.398438 125.597656 C 34 105.597656 50 80.398438 74.800781 55.601562 C 88 41.601562 109.597656 23.199219 110.800781 24.398438 C 112 25.601562 103.597656 48 95.199219 65.199219 C 80 97.199219 56.398438 127.199219 41.601562 134.398438 Z M 41.601562 134.398438 "/></g></g></g><g fill="#000000" fill-opacity="1"><g transform="translate(4561.226774, 644.624921)"><g><path d="M 86.800781 32.398438 C 88.398438 32.800781 90.398438 33.199219 92.398438 33.199219 C 100 33.199219 109.199219 29.199219 117.597656 22 C 127.597656 13.601562 146.800781 -10 161.597656 -32 C 169.199219 -43.199219 176.398438 -53.601562 177.597656 -54.398438 C 182.398438 -58.398438 177.199219 -68.398438 170.398438 -68.398438 C 165.597656 -68.398438 162 -64.800781 148.800781 -44.800781 C 142.398438 -35.601562 107.199219 14.800781 94.398438 14.800781 C 93.199219 14.800781 92 14.398438 91.199219 13.199219 C 84 3.199219 85.199219 -47.199219 94 -98.800781 C 96.398438 -114.398438 96.800781 -117.199219 95.199219 -120.800781 C 93.597656 -124.398438 91.199219 -126.398438 87.199219 -126.398438 C 82.398438 -126.398438 79.199219 -122 70 -106.398438 C 41.199219 -56.398438 18.800781 -20 10 -10.398438 L 5.199219 -5.199219 L 4.398438 -10 C 1.601562 -26 15.601562 -87.597656 22.398438 -90 C 29.601562 -92.398438 31.199219 -100.800781 26 -106.398438 C 23.601562 -108.398438 21.601562 -109.597656 19.601562 -109.597656 C 14.800781 -109.597656 10 -104.398438 5.199219 -93.597656 C -7.601562 -66 -16.398438 -24 -13.199219 -5.601562 C -12 2.800781 -7.601562 14.800781 2.800781 14.800781 C 4 14.800781 5.601562 14.398438 7.601562 14 C 18.398438 10.800781 31.199219 -6 58.398438 -51.199219 C 66.398438 -64 70 -69.597656 70.800781 -69.597656 C 70.800781 -69.597656 70.800781 -69.199219 70.800781 -68.398438 C 67.199219 -46 67.199219 -7.601562 70.398438 8 C 73.199219 20.398438 79.199219 29.199219 86.800781 32.398438 Z M 86.800781 32.398438 "/></g></g></g><g fill="#000000" fill-opacity="1"><g transform="translate(4770.825385, 644.624921)"><g><path d="M -0.398438 69.199219 C 1.601562 71.199219 4.398438 72 6.800781 72 C 9.199219 72 11.199219 71.199219 12.800781 68.800781 C 14.800781 66 14.800781 65.199219 12.398438 57.199219 C 10.398438 49.601562 10 43.601562 10.398438 11.601562 C 10.398438 -9.601562 11.199219 -36.800781 12.398438 -54 L 14.800781 -82.800781 L 22.398438 -96.398438 C 44.398438 -136 62.800781 -181.199219 70.398438 -214.796875 C 75.199219 -235.199219 75.597656 -259.597656 71.199219 -275.199219 C 69.199219 -281.597656 63.199219 -288.796875 58.398438 -290 C 57.601562 -290.398438 56.398438 -290.398438 55.601562 -290.398438 C 48 -290.398438 41.199219 -283.199219 34 -268.796875 C 17.601562 -236 7.601562 -190.796875 -0.800781 -110 C -3.601562 -84.800781 -3.601562 -84.398438 -7.199219 -80.800781 C -12 -76.398438 -12 -72.800781 -8 -68.800781 L -4.800781 -65.597656 L -6.398438 -48.398438 C -7.199219 -39.199219 -8 -12.800781 -8 9.601562 C -8 46 -7.601562 52 -5.601562 58.398438 C -4.398438 62.398438 -2 67.199219 -0.398438 69.199219 Z M 33.601562 -160.398438 C 25.199219 -138.800781 20.800781 -130 20 -130 C 19.601562 -130 19.601562 -130.398438 19.601562 -130.800781 C 19.601562 -132 20.800781 -142.398438 22.398438 -153.199219 C 28.398438 -198.398438 39.199219 -239.597656 50.800781 -262.796875 C 52 -265.199219 52.800781 -266.398438 53.601562 -266.398438 C 55.199219 -266.398438 55.601562 -261.199219 55.601562 -249.199219 C 55.601562 -224.398438 49.601562 -200.398438 33.601562 -160.398438 Z M 33.601562 -160.398438 "/></g></g></g><g fill="#000000" fill-opacity="1"><g transform="translate(4861.224912, 644.624921)"><g><path d="M -22.800781 121.597656 C -20.800781 122.398438 -18.800781 123.199219 -16.398438 123.199219 C -8.398438 123.199219 1.601562 117.199219 13.601562 104.398438 C 35.199219 82.800781 56 47.199219 62.398438 22.398438 C 64.398438 14.398438 66.398438 12.800781 92.800781 -4.800781 C 128 -28.398438 165.597656 -49.199219 172.398438 -49.199219 C 181.199219 -49.199219 184.800781 -60.398438 178 -66 C 176 -67.597656 174.398438 -68.398438 172.398438 -68.398438 C 171.597656 -68.398438 170.800781 -68.398438 170 -68 C 160 -66.800781 119.199219 -44 82.800781 -20 L 66 -8.398438 L 64.398438 -14.800781 C 58.800781 -40.398438 37.601562 -53.601562 15.601562 -64.398438 C -5.199219 -74.398438 -5.601562 -74.800781 -3.601562 -77.597656 C -2 -80.800781 10.398438 -90 21.199219 -96.800781 C 34 -104 38.800781 -106.398438 53.199219 -106.398438 C 55.199219 -106 56.398438 -106 57.601562 -106 C 60.398438 -106 60.800781 -106.800781 62.398438 -109.199219 C 64.800781 -112.398438 64.800781 -113.199219 62.800781 -116 C 60.398438 -120.800781 56 -122.800781 48 -122.800781 C 28.398438 -122.800781 -19.199219 -96.800781 -22.800781 -78 C -24.800781 -66.800781 -20 -62 4.398438 -50 C 15.199219 -44.800781 26.800781 -38.398438 30 -36 C 41.601562 -27.199219 47.601562 -15.199219 47.601562 -1.199219 C 47.601562 5.199219 47.601562 5.601562 40.800781 11.199219 C -18 60 -46.398438 109.199219 -22.800781 121.597656 Z M -9.199219 101.199219 L -13.199219 104 L -12 101.199219 C -8.398438 89.199219 4.800781 71.199219 24 51.199219 L 37.601562 37.601562 L 33.199219 46.398438 C 26.398438 60.398438 4.800781 92.800781 -9.199219 101.199219 Z M -9.199219 101.199219 "/></g></g></g></svg>