<svg xmlns="http://www.w3.org/2000/svg" xmlns:xlink="http://www.w3.org/1999/xlink" width="1080" zoomAndPan="magnify" viewBox="0 0 810 809.999993" height="1080" preserveAspectRatio="xMidYMid meet" version="1.0"><defs><clipPath id="353d384c0d"><path d="M 405 0 C 181.324219 0 0 181.324219 0 405 C 0 628.675781 181.324219 810 405 810 C 628.675781 810 810 628.675781 810 405 C 810 181.324219 628.675781 0 405 0 " clip-rule="nonzero"/></clipPath><clipPath id="a0af85980a"><path d="M 126.203125 159 L 683.453125 159 L 683.453125 810 L 126.203125 810 Z M 126.203125 159 " clip-rule="nonzero"/></clipPath></defs><g clip-path="url(#353d384c0d)"><rect x="-81" width="972" fill="#d8b256" y="-80.999999" height="971.999992" fill-opacity="1"/></g><g clip-path="url(#a0af85980a)"><path fill="#ffffff" d="M 683.261719 390.09375 C 683 387.898438 682.261719 385.738281 682.277344 383.527344 C 682.296875 381.894531 682.71875 380.261719 682.558594 378.648438 C 682.332031 376.417969 681.03125 374.449219 679.753906 372.609375 C 679.382812 371.167969 678.910156 369.78125 678.332031 368.515625 C 677.613281 366.972656 676.488281 365.742188 676.15625 364.058594 C 675.75 362.058594 676.507812 359.984375 676.121094 357.949219 C 675.613281 355.332031 673.121094 353.875 673.03125 351.121094 C 672.996094 349.925781 673.332031 348.734375 673.101562 347.558594 C 672.839844 346.277344 671.925781 345.203125 670.839844 344.484375 C 669.363281 343.5 667.609375 343.132812 666.050781 342.289062 C 663.558594 340.9375 661.734375 338.5 659.488281 336.832031 C 659.839844 336.058594 660.523438 335.410156 660.539062 334.566406 C 660.574219 332.863281 658.082031 332.320312 657.347656 330.773438 C 656.941406 329.933594 657.152344 328.894531 656.800781 328.019531 C 656.222656 326.492188 654.1875 325.824219 653.820312 324.226562 C 653.574219 323.207031 654.117188 322.136719 653.890625 321.121094 C 653.453125 319.257812 650.714844 318.574219 650.519531 316.660156 C 652.03125 316.730469 653.554688 316.644531 655.046875 316.519531 C 658.347656 316.257812 662.082031 315.554688 664.152344 312.886719 C 665.117188 312.554688 666.015625 312.0625 666.734375 311.339844 C 667.46875 310.605469 667.980469 309.691406 668.503906 308.796875 C 669.277344 307.445312 670.050781 306.09375 670.820312 304.742188 C 671.417969 303.6875 672.050781 302.441406 671.628906 301.300781 C 671.367188 300.582031 670.734375 300.054688 670.453125 299.351562 C 670.207031 298.753906 670.242188 298.105469 670.226562 297.472656 C 670.085938 293.207031 667.75 289.378906 665.46875 285.765625 C 665.066406 285.113281 664.644531 284.464844 664.03125 284.007812 C 662.910156 283.164062 661.242188 283.097656 660.398438 281.988281 C 660.082031 281.570312 659.925781 281.023438 659.609375 280.585938 C 659.136719 279.9375 658.382812 279.566406 657.664062 279.214844 C 656.277344 278.566406 654.90625 277.898438 653.519531 277.25 C 653.207031 277.09375 652.835938 276.917969 652.730469 276.566406 C 652.589844 276.109375 652.960938 275.652344 652.996094 275.179688 C 653.117188 274.054688 651.574219 273.582031 650.449219 273.667969 C 649.328125 273.757812 647.871094 273.84375 647.398438 272.808594 C 647.203125 272.386719 647.238281 271.878906 646.976562 271.472656 C 646.574219 270.859375 645.714844 270.859375 645.011719 270.613281 C 642.414062 269.738281 642.644531 265.925781 640.976562 263.75 C 639.785156 262.207031 637.730469 261.644531 635.835938 261.1875 C 634.992188 260.976562 634.132812 260.785156 633.292969 260.574219 C 633.238281 260.484375 633.167969 260.398438 633.117188 260.292969 C 632.449219 258.976562 632.886719 257.324219 632.308594 255.972656 C 631.765625 254.726562 630.484375 253.988281 629.378906 253.199219 C 628.835938 252.796875 628.308594 252.375 627.816406 251.902344 C 628.570312 248.863281 627.203125 245.371094 628.359375 242.402344 C 629.5 239.488281 632.851562 237.785156 633.710938 234.765625 C 634.238281 232.941406 633.710938 230.957031 632.746094 229.34375 C 627.519531 220.601562 612.796875 222.988281 606.621094 214.914062 C 605.640625 213.632812 604.9375 212.140625 603.78125 211.03125 C 601.09375 208.46875 596.8125 208.609375 593.269531 209.664062 C 591.269531 210.242188 589.320312 211.066406 587.355469 211.699219 C 585.234375 210.402344 583.269531 208.960938 583.023438 206.609375 C 582.933594 205.835938 583.074219 205.046875 582.898438 204.292969 C 582.585938 202.992188 581.425781 202.117188 580.375 201.273438 C 576.882812 198.515625 573.847656 195.179688 571.425781 191.441406 C 570.566406 190.109375 569.757812 188.597656 570.003906 187.035156 C 570.195312 185.894531 570.933594 184.894531 571.09375 183.734375 C 571.335938 181.960938 570.109375 180.242188 568.546875 179.363281 C 566.984375 178.488281 565.160156 178.257812 563.371094 178.011719 C 559.125 177.449219 554.652344 176.660156 551.476562 173.800781 C 550.125 172.570312 549.035156 171.007812 547.421875 170.148438 C 545.859375 169.304688 544 169.253906 542.316406 168.671875 C 539.613281 167.742188 537.542969 165.546875 534.964844 164.300781 C 529.773438 161.792969 523.578125 163.53125 517.894531 162.527344 C 512.875 161.652344 508.050781 158.632812 503.03125 159.5625 C 499.910156 160.140625 497.257812 162.214844 494.277344 163.320312 C 485.257812 166.636719 474.695312 160.808594 465.765625 164.390625 C 462.675781 165.636719 460.011719 167.953125 456.730469 168.585938 C 453.554688 169.199219 449.625 168.410156 447.625 170.9375 C 447.007812 171.710938 446.605469 172.746094 446.183594 173.730469 C 443.480469 173.675781 440.445312 173.148438 437.851562 173.554688 C 435.585938 173.90625 434.128906 175.746094 432.917969 177.519531 C 430.480469 181.085938 426.777344 178.609375 423.324219 178.3125 C 420.832031 178.101562 418.390625 178.609375 416.179688 179.734375 C 411.777344 181.980469 408.792969 186.085938 405.511719 189.632812 C 402.476562 192.917969 399.546875 193.109375 396.53125 192.582031 C 393.511719 192.074219 390.390625 190.863281 386.96875 191.371094 C 378.246094 192.707031 378.246094 203.414062 379.878906 209.996094 C 375.757812 208.347656 370.824219 205.871094 366.71875 208.347656 C 365.753906 205.433594 362.507812 202.675781 359.597656 201.992188 C 352.15625 200.238281 348.050781 198.199219 340.472656 196.917969 C 337.417969 196.410156 332.664062 195.742188 329.644531 196.777344 C 327.296875 197.585938 323.277344 197.480469 321.453125 199.304688 C 321.117188 199.640625 317.503906 199.027344 316.820312 199.007812 C 314.976562 198.992188 313.117188 199.113281 311.292969 199.429688 C 307.589844 200.078125 305.066406 201.800781 301.941406 203.675781 C 300.503906 204.554688 298.800781 204.695312 297.167969 204.855469 C 289.976562 205.539062 284.957031 205.820312 282.765625 206.363281 C 281.308594 206.730469 278.464844 208.59375 277.253906 209.558594 C 276.796875 209.910156 276.429688 210.367188 275.972656 210.699219 C 274.570312 211.683594 272.726562 211.4375 271.238281 212.175781 C 269.394531 213.070312 268.832031 214.632812 266.957031 215.507812 C 259.8125 218.898438 254.550781 218.386719 253.375 219.179688 C 252.199219 219.96875 251.183594 222.339844 249.902344 223.128906 C 248.042969 224.285156 243.902344 224.445312 240.320312 226.796875 C 235.390625 230.046875 231.269531 235.136719 227.847656 239.910156 C 224.546875 244.511719 221.863281 249.371094 221.039062 254.992188 C 220.707031 256.886719 220.476562 258.816406 220.214844 260.785156 C 219.949219 262.75 219.652344 264.769531 219.179688 266.824219 C 218.003906 269.527344 216.285156 271.4375 213.632812 273.738281 C 210.984375 276.039062 207.386719 278.722656 202.441406 282.957031 C 186.28125 296.523438 179.839844 308.09375 172.859375 332.40625 C 167.066406 352.578125 169.824219 359.792969 170.59375 370.238281 C 166.417969 370.519531 162.171875 369.746094 158.402344 367.9375 C 160.875 370.519531 164.523438 370.765625 167.789062 371.660156 C 163.226562 372.328125 158.769531 371.34375 154.699219 369.132812 C 158.59375 371.921875 163.347656 373.1875 168.121094 372.714844 C 164.4375 373.574219 160.542969 373.90625 156.875 372.957031 C 161.332031 374.273438 165.980469 374.996094 170.613281 374.960938 C 169.59375 385.667969 163.960938 394.710938 156.453125 401.046875 C 143.855469 411.667969 127.152344 416.984375 126.886719 426.695312 C 126.765625 430.960938 130.328125 438.949219 139.1875 445.652344 C 150.136719 453.9375 135.207031 460.609375 134.203125 460.960938 C 130.730469 462.171875 127.027344 465.070312 129.027344 472.441406 C 130.660156 478.464844 139.011719 481.097656 143.996094 483.429688 C 144.925781 484.011719 126.222656 488.820312 132.835938 502.652344 C 135.519531 508.269531 141.011719 503.199219 147.398438 505.953125 C 163.050781 512.695312 143.136719 524.230469 153.769531 540.097656 C 170.070312 564.324219 207.246094 544.257812 226.371094 539.046875 C 279.992188 524.386719 331.050781 647.957031 321.242188 660.578125 C 299.660156 688.367188 303.730469 704.339844 289.78125 725.40625 C 281.484375 737.941406 267.429688 747.949219 257.917969 759.570312 C 241.671875 779.441406 233.546875 805.789062 235.8125 831.386719 L 569.179688 831.386719 C 523.804688 574.875 388.109375 594.0625 437.570312 512.554688 C 438.585938 510.886719 450.519531 495.878906 463.5 480.902344 C 466.730469 477.164062 470.027344 473.441406 473.257812 469.933594 C 473.574219 469.863281 473.871094 469.773438 474.1875 469.652344 C 476.871094 468.578125 478.625 465.699219 481.433594 464.964844 C 482.90625 464.578125 484.453125 464.839844 485.960938 464.804688 C 487.46875 464.753906 489.171875 464.261719 489.871094 462.925781 C 490.152344 462.382812 490.257812 461.75 490.628906 461.277344 C 490.875 460.960938 491.222656 460.714844 491.59375 460.539062 C 495.363281 458.574219 500.277344 460.398438 504.101562 458.503906 C 504.910156 458.097656 505.648438 457.554688 506.453125 457.152344 C 507.769531 456.503906 509.261719 456.308594 510.71875 456.117188 C 512.683594 455.851562 514.664062 455.605469 516.628906 455.34375 C 516.191406 456.484375 515.71875 457.625 515.207031 458.75 C 513.929688 461.539062 512.332031 466.332031 509.417969 467.773438 C 508.3125 468.316406 507.085938 468.613281 505.960938 469.160156 C 503.507812 470.351562 501.785156 472.652344 500.347656 474.96875 C 498.3125 478.253906 496.03125 480.921875 493.609375 483.90625 C 492.804688 484.90625 492.714844 489.066406 492.820312 490.347656 C 493.066406 493.175781 495.207031 496.125 496.363281 498.667969 C 499.328125 505.21875 514.207031 506.605469 520.453125 508.0625 C 520.769531 508.132812 521.070312 508.375 521.035156 508.726562 C 521 510.957031 520.613281 512.503906 519.910156 513.398438 C 516.226562 518.085938 514.453125 523 512.066406 528.300781 C 509.664062 533.621094 513.648438 535.886719 513.945312 540.570312 C 514.207031 544.925781 518.664062 546.714844 522.4375 546.539062 C 522.824219 546.523438 523.210938 546.46875 523.59375 546.402344 C 523.613281 546.523438 523.613281 546.644531 523.648438 546.769531 C 523.929688 548.085938 524.839844 549.175781 525.734375 550.191406 C 527 551.632812 528.246094 553.070312 529.507812 554.527344 C 530.035156 555.125 530.578125 555.792969 530.597656 556.582031 C 530.632812 557.636719 529.738281 558.511719 529.613281 559.550781 C 529.367188 561.601562 531.929688 562.742188 533.019531 564.5 C 533.789062 565.761719 533.773438 567.324219 533.878906 568.800781 C 533.894531 569.152344 533.949219 569.539062 534.15625 569.800781 C 534.367188 570.0625 534.71875 570.203125 535.054688 570.308594 C 536.316406 570.75 537.648438 571.1875 538.773438 571.871094 C 538.738281 572.734375 538.683594 573.574219 538.5625 574.417969 C 538.421875 575.367188 538.195312 576.332031 538.457031 577.261719 C 538.808594 578.5625 540 579.4375 540.71875 580.5625 C 542.386719 583.230469 541.195312 586.652344 540.929688 589.796875 C 540.230469 598.167969 546.6875 605.964844 545.808594 614.320312 C 545.5625 616.585938 544.894531 619.253906 546.492188 620.886719 C 547.160156 621.570312 548.089844 621.921875 548.828125 622.519531 C 547.652344 624.203125 547.089844 626.574219 548.316406 628.1875 C 548.863281 628.910156 549.738281 629.558594 549.617188 630.4375 C 549.527344 631.101562 548.894531 631.542969 548.476562 632.066406 C 547.511719 633.316406 547.773438 635.070312 547.929688 636.613281 C 548.757812 644.671875 545.527344 652.5 542.808594 660.121094 C 540.089844 667.738281 537.808594 676.164062 540.472656 683.800781 C 541.019531 685.363281 541.753906 686.875 542.035156 688.507812 C 542.316406 690.175781 542.070312 691.878906 541.84375 693.546875 C 540.648438 702.042969 539.472656 710.519531 538.28125 719.015625 C 542.914062 722.089844 550.160156 719.507812 551.828125 714.226562 C 552.511719 712.046875 552.351562 709.714844 552.527344 707.449219 C 552.738281 704.65625 553.476562 701.9375 553.828125 699.144531 C 554.195312 696.089844 554.109375 693.019531 554.125 689.945312 C 554.125 689.347656 554.160156 688.734375 554.179688 688.136719 C 554.421875 687.925781 554.757812 687.855469 555.074219 687.960938 C 555.933594 691.121094 558.441406 693.773438 561.214844 695.386719 C 562.808594 696.566406 563.757812 697.582031 565.8125 698.300781 C 568.933594 699.375 569.953125 697.722656 569.582031 694.792969 C 569.335938 692.753906 567.882812 691.226562 567.511719 689.226562 C 566.742188 686.679688 563.792969 685.628906 562.460938 683.484375 C 561.933594 682.363281 562.40625 681.328125 562.511719 680.203125 C 562.636719 679.011719 562.390625 677.867188 562.460938 676.675781 C 562.511719 675.796875 562.84375 674.972656 563.003906 674.113281 C 563.285156 672.671875 562.460938 671.953125 562.230469 670.671875 C 561.738281 667.863281 561.738281 664.949219 560.53125 662.226562 C 560.53125 662.085938 560.546875 661.945312 560.5625 661.824219 C 560.320312 659.542969 560.320312 657.207031 560.5625 654.800781 C 560.984375 650.589844 561.40625 646.394531 561.828125 642.214844 C 562.300781 639.933594 562.757812 637.632812 563.300781 635.351562 C 563.703125 635.542969 564.125 635.703125 564.566406 635.808594 C 565.390625 635.984375 566.25 635.929688 567.019531 636.265625 C 569.054688 637.105469 569.371094 639.863281 570.792969 641.53125 C 572.53125 643.566406 575.582031 643.691406 578.25 643.460938 C 580.074219 643.304688 581.988281 643.003906 583.410156 641.863281 C 584.828125 640.722656 585.53125 638.476562 584.425781 637.019531 C 583.847656 636.246094 582.898438 635.84375 582.304688 635.085938 C 581.390625 633.894531 581.585938 632.242188 581.566406 630.734375 C 581.515625 626.539062 579.269531 622.449219 575.777344 620.128906 C 574.074219 619.007812 572.058594 618.234375 570.742188 616.691406 C 570.953125 616.058594 571.089844 615.410156 571.125 614.742188 C 571.214844 612.863281 570.496094 610.878906 571.230469 609.160156 C 572.300781 606.597656 576.039062 605.804688 576.777344 603.136719 C 576.792969 603.050781 576.8125 602.945312 576.828125 602.855469 C 580.058594 604.542969 583.410156 605.929688 586.882812 606.945312 C 589.128906 610.265625 592.023438 613.125 595.460938 615.179688 C 601.480469 618.742188 608.65625 619.640625 615.640625 620.148438 C 617.078125 620.253906 618.691406 620.445312 619.535156 621.605469 C 621.0625 623.710938 618.691406 626.328125 617.359375 628.558594 C 615.550781 631.558594 615.585938 635.261719 615.691406 638.773438 C 615.832031 643.53125 615.972656 648.289062 616.113281 653.046875 C 616.253906 657.855469 616.585938 663.15625 619.902344 666.632812 C 622.113281 668.96875 625.605469 670.40625 626.484375 673.515625 C 626.941406 675.113281 626.570312 676.851562 626.957031 678.464844 C 627.710938 681.539062 630.992188 683.519531 631.554688 686.628906 C 632.097656 689.648438 629.851562 692.808594 630.871094 695.703125 C 631.324219 696.984375 632.34375 697.96875 633.097656 699.109375 C 636.710938 704.464844 634.328125 712.523438 638.539062 717.417969 C 640.046875 719.175781 642.1875 720.210938 643.992188 721.632812 C 646.996094 723.96875 649.082031 727.304688 652.046875 729.691406 C 655.011719 732.058594 659.59375 733.253906 662.503906 730.796875 C 663.890625 727.234375 661.363281 723.335938 658.433594 720.878906 C 655.503906 718.4375 651.925781 716.507812 650.082031 713.152344 C 648.75 710.730469 648.503906 707.886719 648.203125 705.132812 C 647.554688 699.304688 646.503906 693.527344 645.046875 687.855469 C 643.433594 681.574219 641.238281 675.253906 637.082031 670.265625 C 636.0625 669.054688 634.941406 667.898438 634.34375 666.441406 C 633.359375 664.019531 634.082031 661.210938 633.394531 658.679688 C 632.429688 654.996094 628.589844 651.851562 629.589844 648.164062 C 629.941406 646.867188 630.871094 645.796875 631.605469 644.65625 C 636.273438 637.28125 632.464844 626.132812 638.589844 619.921875 C 639.433594 619.058594 640.503906 618.21875 640.539062 617.023438 C 640.574219 616.25 640.132812 615.53125 639.695312 614.898438 C 636.625 610.40625 632.21875 606.703125 627.007812 605.175781 C 623.132812 604.03125 619.027344 604.136719 614.992188 603.875 C 610.957031 603.613281 606.761719 602.890625 603.550781 600.433594 C 600.339844 597.976562 598.53125 593.308594 600.410156 589.726562 C 598.042969 590.058594 595.9375 587.988281 595.042969 585.757812 C 594.164062 583.527344 594.078125 581.054688 593.355469 578.773438 C 592.847656 577.191406 592.042969 575.71875 591.234375 574.261719 C 589.339844 570.855469 587.269531 567.605469 585.179688 564.375 C 585.339844 563.394531 585.480469 562.480469 585.515625 561.902344 C 585.777344 555.5625 585.003906 548.804688 583.234375 541.609375 C 582.96875 540.554688 583.375 539.765625 584.410156 539.238281 C 587.777344 535.183594 590.269531 530.144531 592.65625 525.316406 C 592.671875 525.441406 592.691406 525.582031 592.707031 525.703125 C 593.128906 529.003906 593.566406 532.375 594.9375 535.410156 C 595.867188 537.464844 597.269531 539.5 597.007812 541.75 C 596.777344 543.714844 595.304688 545.609375 595.953125 547.488281 C 596.253906 548.332031 596.917969 548.964844 597.460938 549.683594 C 601.550781 555.054688 597.183594 563.621094 600.902344 569.238281 C 604.8125 575.136719 614.605469 573.609375 619.429688 578.808594 C 621.113281 580.613281 622.289062 583.300781 624.710938 583.808594 C 625.378906 583.949219 626.097656 583.898438 626.730469 584.160156 C 629.007812 585.089844 628.253906 588.601562 629.570312 590.675781 C 630.800781 592.585938 633.484375 592.832031 635.292969 594.21875 C 637.203125 595.675781 637.90625 598.1875 639.273438 600.136719 C 642.539062 604.824219 650.167969 605.558594 654.277344 601.59375 C 654.785156 601.101562 655.257812 600.503906 655.3125 599.800781 C 655.363281 599.136719 655.03125 598.503906 654.695312 597.90625 C 651.855469 592.832031 648.996094 587.742188 646.152344 582.667969 C 645.554688 581.597656 644.941406 580.507812 644.027344 579.667969 C 642.816406 578.527344 641.167969 577.964844 639.835938 576.964844 C 637.570312 575.277344 636.167969 572.363281 633.484375 571.46875 C 632.324219 571.082031 630.992188 571.101562 630.0625 570.308594 C 629.414062 569.75 629.097656 568.90625 628.640625 568.167969 C 627.167969 565.761719 624.273438 564.710938 621.78125 563.375 C 619.289062 562.042969 616.78125 559.707031 617.148438 556.914062 C 617.253906 556.089844 617.621094 555.265625 617.394531 554.457031 C 617.203125 553.757812 616.605469 553.265625 616.132812 552.703125 C 614.375 550.632812 614.339844 547.664062 614.113281 544.960938 C 613.621094 538.921875 611.796875 533.09375 610.234375 527.230469 C 609.023438 522.71875 607.953125 518.15625 607.042969 513.574219 C 610.78125 512.554688 614.480469 511.449219 618.113281 510.0625 C 619.921875 509.378906 621.605469 508.605469 623.308594 507.675781 C 624.816406 506.867188 626.605469 505.742188 628.394531 506.078125 C 628.429688 506.058594 629.183594 505.359375 629.21875 505.375 C 629.730469 507.9375 630.308594 510.535156 630.113281 513.152344 C 629.957031 515.347656 630.976562 517.488281 630.78125 519.558594 C 630.625 521.246094 629.042969 522.402344 628.21875 523.894531 C 627.273438 525.652344 626.816406 529.742188 628.429688 531.355469 C 628.414062 531.496094 628.394531 531.636719 628.394531 531.777344 C 628.695312 531.863281 629.007812 531.882812 629.324219 531.882812 C 629.414062 531.917969 629.484375 531.953125 629.570312 531.96875 C 630.238281 532.058594 630.871094 531.742188 631.429688 531.355469 C 631.78125 531.179688 632.132812 530.96875 632.449219 530.757812 C 635.429688 528.617188 636.835938 524.929688 637.992188 521.4375 C 638.132812 521.015625 638.257812 520.59375 638.308594 520.171875 C 638.363281 519.648438 638.292969 519.101562 638.273438 518.574219 C 638.1875 516.066406 639.308594 513.609375 639.167969 511.097656 C 639.046875 508.851562 637.90625 506.710938 638.097656 504.460938 C 638.222656 503.023438 638.871094 501.496094 638.222656 500.195312 C 637.957031 499.652344 637.484375 499.230469 637.257812 498.652344 C 637.097656 498.230469 637.097656 497.773438 637.097656 497.316406 C 637.097656 496.089844 637.097656 494.859375 637.097656 493.648438 C 637.097656 492.417969 637.097656 491.171875 637.570312 490.03125 C 637.589844 489.996094 637.605469 489.960938 637.625 489.925781 C 637.957031 489.699219 638.292969 489.453125 638.554688 489.152344 C 639.203125 488.453125 639.589844 487.539062 640.222656 486.820312 C 641.1875 485.730469 642.644531 485.1875 643.714844 484.203125 C 645.292969 482.746094 645.835938 480.535156 646.695312 478.570312 C 648.203125 475.164062 650.90625 472.230469 651.609375 468.578125 C 652.101562 466.035156 651.554688 463.402344 651.484375 460.804688 C 651.46875 460.171875 651.484375 459.539062 651.644531 458.925781 C 651.871094 458.046875 652.414062 457.257812 652.679688 456.378906 C 652.960938 455.429688 652.925781 454.429688 652.871094 453.449219 C 652.765625 451.234375 652.679688 449.023438 652.574219 446.8125 C 652.554688 446.375 652.539062 445.898438 652.765625 445.511719 C 652.90625 445.285156 653.117188 445.109375 653.273438 444.898438 C 653.449219 444.671875 653.554688 444.40625 653.644531 444.144531 C 654.152344 442.6875 654.207031 441.125 653.90625 439.613281 C 654.207031 439.492188 654.519531 439.386719 654.820312 439.261719 C 656.152344 438.703125 657.136719 437.402344 657.347656 435.964844 C 657.433594 435.3125 657.398438 434.613281 657.695312 434.03125 C 658.242188 432.960938 659.660156 432.699219 660.417969 431.765625 C 661.382812 430.574219 660.90625 428.78125 661.328125 427.292969 C 661.960938 425.078125 664.453125 423.832031 665.152344 421.65625 C 665.996094 419.039062 664.117188 415.632812 666.066406 413.6875 C 666.996094 412.753906 668.433594 412.648438 669.628906 412.105469 C 670.3125 411.789062 670.925781 411.332031 671.539062 410.878906 C 672.910156 409.839844 674.277344 408.769531 675.453125 407.523438 C 677.804688 405.050781 679.402344 401.855469 679.960938 398.484375 C 680.03125 398.042969 680.101562 397.570312 680.347656 397.183594 C 680.628906 396.746094 681.101562 396.464844 681.507812 396.132812 C 683.171875 394.796875 683.523438 392.304688 683.261719 390.09375 Z M 560.949219 191.617188 C 561.617188 192.054688 562.300781 192.511719 562.738281 193.164062 C 563.476562 194.234375 563.476562 195.65625 563.914062 196.882812 C 565.195312 200.5 570.125 202.132812 570.757812 205.925781 C 570.933594 206.941406 570.757812 208.015625 571.003906 209.015625 C 571.074219 209.296875 571.179688 209.574219 571.320312 209.820312 C 570.40625 209.332031 569.496094 208.945312 568.582031 208.785156 C 567.6875 208.679688 566.8125 208.644531 565.984375 208.664062 C 566.039062 208.433594 566.089844 208.222656 566.125 207.996094 C 566.25 206.90625 565.933594 205.800781 565.617188 204.75 C 565.160156 203.203125 564.671875 201.625 563.671875 200.359375 C 562.300781 198.621094 560.074219 197.621094 559.089844 195.636719 C 558.195312 193.847656 558.546875 191.6875 558.125 189.738281 C 559.074219 190.355469 560.003906 190.984375 560.949219 191.617188 Z M 567.777344 424.113281 C 567.636719 424.359375 567.566406 424.34375 567.546875 424.0625 C 567.320312 418.847656 566.40625 412.246094 569.023438 407.613281 C 569.230469 407.242188 569.425781 407.242188 569.582031 407.648438 C 571.742188 413.019531 570.496094 419.320312 567.777344 424.113281 Z M 563.878906 516.101562 L 563.230469 524.40625 C 563.179688 525.019531 563.054688 525.035156 562.828125 524.457031 C 561.878906 521.332031 560.476562 517.664062 563.179688 515.679688 C 563.707031 515.363281 563.933594 515.503906 563.878906 516.101562 Z M 466.78125 189.511719 C 464.34375 191.371094 461.992188 191.179688 459.765625 188.964844 C 459.292969 188.511719 459.394531 188.300781 460.046875 188.351562 L 466.589844 188.863281 C 466.921875 188.878906 467.046875 189.300781 466.78125 189.511719 Z M 506.382812 177.378906 C 503.171875 177.765625 500.664062 180.015625 498.539062 182.558594 C 496.523438 183.15625 494.433594 183.804688 492.242188 184.558594 C 491.996094 184.628906 491.734375 184.558594 491.574219 184.367188 C 487.242188 179.136719 484.835938 176.433594 477.75 175.449219 C 475.222656 174.921875 472.75 174.34375 470.238281 173.78125 C 470.730469 173.625 471.238281 173.535156 471.785156 173.519531 C 473.132812 173.484375 474.433594 173.976562 475.765625 174.097656 C 478.519531 174.359375 481.171875 173.113281 483.871094 172.589844 C 488.207031 171.746094 492.804688 172.710938 497.066406 171.550781 C 499.46875 170.886719 501.785156 169.550781 504.277344 169.691406 C 506.453125 169.816406 508.4375 171.0625 510.613281 171.324219 C 513.015625 171.605469 515.4375 170.621094 517.824219 170.9375 C 519.753906 171.183594 521.421875 172.238281 523.140625 173.203125 C 522.613281 173.429688 522.070312 173.640625 521.507812 173.746094 C 520.246094 173.976562 518.929688 173.730469 517.648438 173.746094 C 515.839844 173.78125 514.070312 174.378906 512.59375 175.414062 C 511.894531 175.921875 511.242188 176.519531 510.453125 176.871094 C 509.191406 177.398438 507.753906 177.203125 506.382812 177.378906 Z M 515.945312 441.703125 C 514.753906 442.316406 513.929688 443.546875 512.664062 444.019531 C 511.542969 444.441406 510.296875 444.195312 509.101562 444.214844 C 510.453125 443.214844 510.789062 442.125 511.753906 440.160156 C 513.140625 437.351562 515.753906 435.121094 518.417969 433.488281 C 519.15625 433.03125 522.296875 431.3125 522.507812 420.09375 C 522.5625 417.742188 526 424.078125 524.402344 433.417969 C 523.894531 433.980469 523.210938 434.382812 522.894531 435.066406 C 522.699219 435.472656 522.648438 435.964844 522.421875 436.347656 C 521.804688 437.367188 520.261719 437.332031 519.421875 438.191406 C 518.734375 438.878906 518.664062 440 517.980469 440.683594 C 517.417969 441.210938 516.628906 441.351562 515.945312 441.703125 Z M 518.859375 498.949219 C 514.929688 498.300781 511.347656 496.578125 507.277344 495.878906 C 504.03125 495.296875 501.382812 489.980469 503.664062 487.242188 C 506.71875 483.570312 510.875 483.082031 513.578125 479.480469 C 515.035156 477.53125 516.824219 476.285156 518.210938 474.320312 C 519.015625 473.160156 519.71875 472.265625 520.296875 471.667969 C 524.910156 466.789062 530.246094 459.363281 531.296875 452.585938 C 531.28125 452.5 531.527344 451.445312 531.84375 450.429688 C 532.527344 452.273438 533.507812 454.097656 533.613281 455.554688 C 533.738281 457.152344 532.351562 458.414062 531.773438 459.90625 C 530.894531 462.136719 531.878906 464.59375 532.527344 466.894531 C 533.738281 471.179688 533.753906 475.636719 533.632812 480.097656 C 532.878906 482.730469 531.929688 485.238281 530.527344 487.222656 C 530.367188 487.453125 530.28125 487.714844 530.28125 487.976562 C 530.28125 490.347656 529.824219 492.613281 528.914062 494.753906 C 527.980469 496.929688 527.980469 498.703125 527.507812 500.898438 C 525.316406 498.511719 521.789062 499.355469 518.859375 498.949219 Z M 533.160156 525.335938 C 532.632812 525.582031 532.054688 525.84375 531.789062 526.351562 C 531.507812 526.933594 531.753906 527.597656 531.738281 528.230469 C 531.71875 529.371094 530.894531 530.355469 529.949219 530.96875 C 528.984375 531.585938 527.878906 531.917969 526.859375 532.410156 C 526.457031 532.601562 526.050781 532.832031 525.804688 533.21875 C 525.632812 533.496094 525.5625 533.832031 525.507812 534.164062 C 525.226562 535.691406 524.945312 537.21875 524.667969 538.765625 C 524.296875 538.816406 523.894531 538.816406 523.457031 538.78125 C 523.191406 538.765625 522.964844 538.605469 522.839844 538.378906 C 521.472656 535.992188 519.859375 533.023438 520.683594 530.179688 C 521.769531 526.457031 522.59375 521.910156 525.527344 519.15625 C 526.824219 517.925781 527.191406 515.714844 528.421875 515.066406 C 529.683594 516.75 531.296875 518.523438 533.597656 518.382812 C 535.070312 518.472656 536.105469 517.1875 535.753906 515.765625 C 535.421875 513.695312 533.738281 512.1875 532.332031 510.730469 C 531.683594 507.605469 533.246094 502.425781 534.035156 499.320312 C 534.402344 502.8125 534.949219 506.289062 535.683594 509.730469 C 536.351562 512.765625 537.160156 515.820312 536.949219 518.910156 C 536.859375 520.277344 536.5625 521.648438 536.300781 523.019531 C 535.402344 523.984375 534.332031 524.773438 533.160156 525.335938 Z M 537.753906 551.070312 C 537.371094 550.085938 537.265625 549.015625 536.703125 548.121094 C 536.351562 547.542969 535.808594 547.066406 535.527344 546.453125 C 535.140625 545.609375 535.265625 544.628906 535.402344 543.714844 C 535.492188 543.117188 535.578125 542.539062 535.667969 541.941406 C 536.351562 541.855469 537.054688 541.855469 537.773438 541.960938 C 537.894531 545.242188 538 548.523438 538.125 551.824219 C 537.984375 551.5625 537.859375 551.316406 537.753906 551.070312 Z M 530.773438 181.839844 C 531.984375 182.101562 533.195312 182.417969 534.367188 182.824219 C 536.542969 183.578125 538.648438 184.578125 540.613281 185.773438 C 541.617188 186.386719 542.582031 187.054688 543.351562 187.949219 C 544.386719 189.140625 544.984375 190.652344 546 191.863281 C 547.6875 193.828125 550.28125 194.691406 552.546875 195.972656 C 552.828125 196.128906 553.125 196.304688 553.316406 196.585938 C 553.582031 196.972656 553.597656 197.464844 553.597656 197.9375 C 553.617188 199.238281 553.632812 200.519531 553.652344 201.816406 C 545.546875 191.53125 538.457031 185.085938 530.773438 181.839844 Z M 542.386719 285.660156 C 542.195312 285.429688 542.371094 285.078125 542.667969 285.113281 C 547.914062 285.800781 552.230469 287.746094 555.109375 292.574219 C 557.441406 296.367188 559.53125 300.300781 561.371094 304.371094 C 555.230469 299.703125 548.195312 291.960938 542.386719 285.660156 Z M 558.039062 465.699219 C 557.617188 472.511719 556.421875 479.21875 554.492188 485.800781 C 554.40625 486.117188 553.933594 486.011719 553.96875 485.695312 C 554.285156 483.097656 555.125 458.277344 558.089844 459.785156 C 558.5625 461.855469 558.144531 463.964844 558.039062 465.699219 Z M 559.597656 598.484375 C 559.652344 596.503906 560.25 594.5 560.214844 592.5 C 560.160156 588.320312 557.390625 584.441406 556.546875 580.472656 C 557.039062 580.613281 557.5625 580.71875 558.089844 580.773438 C 558.425781 582.105469 558.757812 583.421875 559.089844 584.757812 C 559.792969 587.515625 560.496094 590.324219 560.425781 593.167969 C 560.371094 594.976562 560.019531 596.746094 559.597656 598.484375 Z M 570.476562 575.945312 C 570.074219 575.101562 569.511719 574.3125 568.933594 573.558594 C 566.636719 570.484375 564.230469 567.34375 560.949219 565.359375 C 559.792969 564.65625 558.511719 564.097656 557.511719 563.164062 C 556.546875 562.253906 555.914062 561.058594 555.230469 559.898438 C 555.089844 558.285156 555.230469 556.671875 555.667969 555.109375 C 555.984375 553.984375 556.441406 552.859375 556.285156 551.71875 C 556.089844 550.367188 555.089844 549.296875 554.441406 548.101562 C 554.054688 547.417969 553.808594 546.714844 553.617188 545.980469 C 556.722656 549.035156 559.949219 551.929688 563.335938 554.667969 C 562.179688 555.914062 563.355469 557.96875 564.792969 558.882812 C 566.230469 559.796875 568.039062 560.375 568.8125 561.882812 C 569.25 562.746094 569.25 563.761719 569.546875 564.691406 C 569.882812 565.726562 570.546875 566.589844 571.265625 567.429688 C 571.652344 570.222656 571.195312 573.171875 570.476562 575.945312 Z M 627.765625 281.324219 C 632.90625 282.269531 639.519531 287.886719 642.484375 292.785156 C 642.644531 293.066406 642.574219 293.191406 642.238281 293.15625 L 637.273438 292.644531 C 636.992188 292.628906 636.730469 292.488281 636.554688 292.277344 L 627.484375 281.8125 C 627.273438 281.621094 627.464844 281.269531 627.765625 281.324219 Z M 639.1875 325.542969 C 635.746094 321.3125 632.625 316.855469 629.765625 312.21875 C 630.464844 312.484375 631.1875 312.691406 631.941406 312.796875 C 633.011719 312.957031 634.117188 312.902344 635.203125 312.832031 C 635.292969 312.902344 635.363281 312.992188 635.414062 313.078125 C 637.34375 316.378906 638.609375 321.539062 639.679688 325.28125 C 639.785156 325.597656 639.378906 325.808594 639.1875 325.542969 Z M 612.167969 225.902344 C 612.710938 226.816406 613.042969 227.851562 613.761719 228.640625 C 614.992188 229.992188 616.972656 230.253906 618.746094 230.746094 C 620.5 231.238281 622.429688 232.398438 622.519531 234.222656 C 622.605469 236.015625 620.972656 237.171875 619.710938 238.558594 C 618.726562 237.066406 617.816406 235.558594 616.867188 234.046875 C 613.957031 229.449219 610.570312 224.882812 605.746094 222.375 C 604.605469 221.777344 603.394531 221.320312 602.21875 220.792969 C 606.164062 221.40625 610.21875 222.566406 612.167969 225.902344 Z M 616.34375 288.695312 C 616.570312 288.820312 616.414062 289.203125 616.167969 289.117188 C 613.992188 288.554688 611.78125 288.082031 609.515625 287.695312 C 606.464844 287.1875 602.164062 282.480469 600.359375 280.425781 C 600.128906 280.164062 600.464844 279.796875 600.742188 279.953125 Z M 603.675781 260.695312 C 603.726562 260.46875 603.953125 260.308594 604.183594 260.363281 C 606.902344 260.90625 611.78125 260.539062 612.902344 263.769531 C 612.972656 263.960938 612.816406 264.152344 612.605469 264.117188 C 610.886719 263.855469 603.339844 262.363281 603.675781 260.695312 Z M 592.09375 244.300781 C 594.742188 241.929688 597.585938 239.824219 600.621094 237.960938 C 600.917969 237.785156 601.304688 237.875 601.5 238.171875 L 607.359375 247.476562 C 607.480469 247.671875 607.324219 247.933594 607.09375 247.878906 L 592.445312 245.492188 C 591.496094 245.335938 591.390625 244.929688 592.09375 244.300781 Z M 573.757812 506.183594 C 573.617188 506.535156 573.109375 506.570312 572.933594 506.21875 C 570.882812 502.375 571.546875 499.160156 574.917969 496.5625 C 575.128906 496.40625 575.441406 496.441406 575.601562 496.648438 C 576.617188 497.933594 574.371094 504.691406 573.757812 506.183594 Z M 575.320312 475.128906 C 574.917969 475.53125 574.652344 475.460938 574.511719 474.917969 C 572.128906 465.683594 571.636719 452.359375 576.496094 444.019531 C 576.601562 443.828125 576.882812 443.84375 576.96875 444.039062 C 578.96875 448.671875 580.988281 453.359375 580.707031 458.398438 C 580.460938 462.945312 578.722656 471.6875 575.320312 475.128906 Z M 583.621094 600.820312 C 581.320312 599.257812 579.375 597.292969 577.8125 594.886719 C 577.652344 594.625 577.566406 594.324219 577.582031 594.007812 C 577.707031 592.253906 578.144531 590.605469 578.882812 589.023438 C 580.953125 591.304688 581.898438 595.148438 582.792969 598.328125 C 583.023438 599.171875 583.304688 599.996094 583.621094 600.820312 Z M 586.742188 513.503906 C 586.023438 515.679688 580.601562 527.738281 577.707031 526.105469 C 576.777344 524.351562 576.722656 522.808594 578.09375 521.140625 C 580.074219 518.734375 581.863281 516.171875 583.460938 513.449219 C 583.585938 513.238281 583.8125 513.117188 584.058594 513.097656 L 586.460938 513.0625 C 586.65625 513.082031 586.8125 513.308594 586.742188 513.503906 Z M 585.53125 505.601562 C 585.304688 505.496094 585.144531 505.269531 585.144531 505.007812 C 585.179688 502.566406 585.164062 482.695312 586.566406 482.042969 C 586.707031 481.992188 586.847656 482.078125 586.867188 482.21875 C 587.691406 489.363281 588.53125 496.140625 588.585938 503.375 C 588.585938 505.480469 587.601562 506.480469 585.53125 505.601562 Z M 587.742188 380.402344 C 587.375 380.753906 586.796875 380.648438 586.566406 380.191406 L 581.496094 369.886719 C 581.320312 369.519531 581.757812 369.167969 582.074219 369.394531 C 584.882812 371.414062 591.847656 376.503906 587.742188 380.402344 Z M 586.074219 359.125 C 579.671875 354.824219 579.023438 347.855469 578.320312 340.9375 C 578.304688 340.65625 578.375 340.621094 578.582031 340.796875 C 585.480469 347.453125 590.707031 355.210938 594.304688 364.058594 C 594.390625 364.285156 594.339844 364.339844 594.128906 364.199219 C 591.390625 362.585938 588.707031 360.898438 586.074219 359.125 Z M 603.359375 466.578125 C 603.289062 465.386719 604.234375 464.171875 603.761719 463.085938 C 603.464844 462.417969 602.746094 462.066406 602.324219 461.46875 C 601.199219 459.855469 602.867188 457.398438 601.8125 455.746094 C 601.410156 455.132812 600.691406 454.78125 600.21875 454.203125 C 599.007812 452.710938 599.832031 450.445312 599.234375 448.621094 C 598.550781 446.546875 596.113281 445.265625 595.902344 443.109375 C 595.8125 442.210938 596.128906 441.246094 595.671875 440.476562 C 595.164062 439.597656 593.832031 439.332031 593.566406 438.351562 C 593.304688 437.402344 594.234375 436.578125 594.585938 435.664062 C 595.234375 433.890625 593.691406 431.644531 594.8125 430.136719 C 595.289062 429.503906 596.113281 429.1875 596.566406 428.554688 C 597.480469 427.292969 596.550781 425.570312 596.410156 424.027344 C 596.253906 422.148438 597.289062 420.425781 597.953125 418.652344 C 598.621094 416.898438 598.761719 414.582031 597.253906 413.441406 C 596.566406 412.914062 595.550781 412.632812 595.339844 411.789062 C 595.148438 410.964844 595.882812 410.191406 595.8125 409.351562 C 595.726562 408.210938 594.324219 407.753906 593.550781 406.925781 C 592.042969 405.328125 593.042969 402.660156 594.515625 401.046875 C 595.988281 399.429688 597.953125 398.027344 598.445312 395.886719 C 598.867188 394.09375 598.164062 392.09375 598.988281 390.445312 C 599.65625 389.089844 601.304688 388.074219 601.113281 386.582031 C 601.023438 385.863281 600.5 385.246094 600.410156 384.527344 C 600.289062 383.402344 601.21875 382.367188 601.8125 381.367188 C 602.867188 382.050781 603.78125 382.878906 604.21875 384.035156 C 604.535156 384.878906 604.535156 385.808594 604.832031 386.667969 C 605.796875 389.371094 609.128906 390.144531 611.675781 391.445312 C 612.359375 391.796875 613.078125 392.269531 613.289062 393.007812 C 613.480469 393.65625 613.238281 394.339844 613.183594 395.007812 C 612.851562 399.484375 620.007812 400.90625 621.167969 405.242188 C 621.695312 407.191406 620.851562 409.226562 620.359375 411.175781 C 619.519531 414.5625 619.726562 418.199219 620.972656 421.460938 C 618.519531 421.53125 617.113281 424.535156 617.429688 426.976562 C 617.746094 429.414062 619.132812 431.59375 619.78125 433.980469 C 620.484375 436.578125 620.253906 439.316406 620.710938 441.96875 C 621.132812 444.390625 622.113281 446.933594 621.21875 449.21875 C 620.730469 450.480469 619.675781 451.585938 619.660156 452.957031 C 619.660156 453.800781 620.0625 454.570312 620.34375 455.359375 C 620.660156 456.238281 620.816406 457.167969 620.832031 458.101562 C 618.957031 459.46875 616.726562 460.804688 615.097656 461.890625 C 611.886719 464.035156 609.132812 466.507812 606.796875 469.300781 C 605.148438 468.964844 603.429688 468.195312 603.359375 466.578125 Z M 607.007812 346.082031 C 610.585938 348.925781 613.535156 351.332031 612.691406 357.195312 C 612.621094 357.054688 612.550781 356.929688 612.480469 356.789062 C 610.640625 353.226562 608.832031 349.644531 607.007812 346.082031 Z M 605.324219 504.09375 C 605.09375 502.636719 604.886719 501.179688 604.691406 499.722656 C 604.394531 497.476562 604.128906 495.210938 604.304688 492.945312 C 604.429688 491.347656 604.78125 489.679688 605.007812 488.066406 C 606.78125 488.910156 608.691406 489.558594 610.515625 490.136719 C 612.078125 490.3125 613.238281 491.191406 614.359375 492.191406 C 616.0625 493.28125 618.378906 492.488281 620.238281 493.246094 C 620.992188 493.542969 621.625 494.085938 622.21875 494.632812 C 618.746094 499.722656 611.042969 502.828125 605.324219 504.09375 Z M 627.484375 488.046875 C 626.21875 487.46875 624.976562 486.890625 623.710938 486.308594 C 619.832031 484.414062 615.550781 483.605469 611.429688 482.359375 C 610.253906 482.027344 609.816406 482.183594 610.042969 481.078125 C 610.726562 477.796875 612.027344 473.96875 614.816406 471.878906 C 616.957031 470.265625 620.746094 468.492188 626.167969 466.5625 C 626.378906 466.492188 626.589844 466.613281 626.640625 466.824219 C 628.238281 474.671875 633.398438 480.253906 627.484375 488.046875 Z M 634.433594 443.371094 C 631.484375 436.980469 634.1875 429.414062 632.992188 422.480469 C 632.851562 421.621094 632.640625 420.761719 632.695312 419.902344 C 632.730469 419.480469 632.816406 419.074219 632.941406 418.671875 C 633.238281 419.761719 633.519531 420.832031 633.816406 421.917969 C 634.34375 423.851562 634.871094 425.78125 635.519531 427.660156 C 635.851562 428.589844 636.203125 429.519531 636.363281 430.484375 C 636.800781 433.3125 635.484375 436.507812 637.011719 438.929688 C 637.027344 438.964844 637.0625 438.984375 637.082031 439.019531 C 636.34375 440.613281 635.378906 442.351562 634.605469 443.757812 C 634.554688 443.632812 634.484375 443.511719 634.433594 443.371094 Z M 637.308594 462.261719 C 636.921875 462.996094 636.46875 463.71875 636.046875 464.4375 C 635.503906 462.121094 635.0625 459.558594 634.976562 459.082031 C 634.941406 458.800781 635.027344 458.503906 635.222656 458.273438 L 639.679688 453.449219 C 639.398438 456.519531 638.765625 459.539062 637.308594 462.261719 Z M 649.171875 402.414062 C 649.242188 403.066406 649.519531 403.699219 649.519531 404.347656 C 649.554688 405.996094 648.082031 407.171875 646.800781 408.242188 C 646.449219 407.050781 646.101562 405.855469 645.730469 404.679688 C 644.152344 399.589844 642.449219 394.324219 638.800781 390.460938 C 636.976562 388.53125 634.675781 386.96875 633.363281 384.667969 C 632.484375 383.125 632.097656 381.367188 631.378906 379.753906 C 629.675781 375.960938 626.21875 373.273438 623.675781 370.007812 C 624.183594 367.535156 624.429688 365.058594 624.695312 362.53125 C 624.921875 360.265625 626.253906 357.792969 625.570312 355.527344 C 624.394531 351.613281 625.378906 347.609375 623.378906 343.730469 C 621.570312 340.238281 618.394531 337.777344 614.832031 336.269531 C 609.445312 333.96875 606.359375 328.351562 601.339844 325.667969 C 600.742188 325.351562 600.113281 325.175781 599.5 325.015625 C 599.550781 323.4375 599.671875 321.839844 598.953125 320.453125 C 597.867188 318.347656 595.164062 317.449219 594.09375 315.34375 C 593.234375 313.640625 593.636719 311.480469 592.65625 309.847656 C 591.707031 308.234375 589.636719 307.496094 588.726562 305.863281 C 587.917969 304.425781 588.199219 302.703125 588.269531 301.019531 C 589.707031 301.316406 591.234375 301.019531 592.726562 301.105469 C 592.777344 301.105469 592.847656 301.125 592.902344 301.125 C 593.078125 301.160156 593.234375 301.195312 593.410156 301.230469 C 594.726562 301.511719 593.847656 303.828125 595.128906 304.582031 C 595.882812 305.039062 596.796875 305.144531 597.585938 305.53125 C 598.917969 306.199219 599.09375 307.566406 600.113281 308.480469 C 601.183594 309.445312 602.832031 309.550781 604.023438 310.289062 C 604.816406 310.78125 605.5 311.535156 605.675781 312.464844 C 605.78125 313.007812 605.710938 313.589844 605.832031 314.132812 C 606.183594 315.675781 607.726562 316.203125 608.691406 317.257812 C 609.902344 318.589844 610.324219 320.398438 611.238281 321.910156 C 611.992188 323.171875 612.992188 323.910156 614.113281 324.804688 C 615.535156 325.945312 615.359375 327.964844 616.886719 328.84375 C 617.535156 329.210938 618.273438 329.40625 618.957031 329.652344 C 620.902344 330.371094 622.730469 331.949219 622.972656 334.023438 C 623.097656 334.988281 622.871094 335.972656 622.972656 336.953125 C 623.183594 338.9375 625.097656 339.253906 626.535156 340.027344 C 628.429688 341.042969 629.167969 342.554688 630.394531 344.257812 C 632.292969 346.90625 634.851562 347.277344 637.609375 348.503906 C 639.398438 349.3125 641.238281 351.136719 640.46875 353.246094 C 640.167969 354.070312 639.730469 355 640.097656 355.808594 C 640.644531 357.019531 642.589844 357.125 642.414062 358.722656 C 642.238281 360.300781 641.800781 361.441406 642.75 362.828125 C 644.011719 364.671875 646.222656 365.042969 646.976562 367.394531 C 647.890625 370.203125 645.644531 372.609375 646.292969 375.417969 C 646.941406 378.226562 651.277344 379.769531 650.75 382.878906 C 650.644531 383.472656 650.347656 384.035156 650.207031 384.632812 C 649.785156 386.652344 651.519531 388.777344 650.75 390.6875 C 650.46875 391.390625 649.871094 391.988281 649.890625 392.742188 C 649.890625 393.464844 650.449219 394.042969 650.730469 394.691406 C 651.800781 397.167969 648.855469 399.746094 649.171875 402.414062 Z M 667.398438 390.460938 C 664.539062 386.371094 662.136719 382.085938 661.644531 376.925781 C 661.398438 374.539062 661.1875 372.167969 660.996094 369.835938 C 661.3125 370.273438 661.699219 370.710938 662.03125 371.132812 C 663.679688 373.257812 664.433594 375.941406 665.136719 378.558594 C 665.59375 380.210938 666.03125 381.875 666.488281 383.527344 C 667.066406 385.792969 667.664062 388.214844 667.398438 390.460938 Z M 667.398438 390.460938 " fill-opacity="1" fill-rule="nonzero"/></g></svg>