<svg xmlns="http://www.w3.org/2000/svg" xmlns:xlink="http://www.w3.org/1999/xlink" width="1080" zoomAndPan="magnify" viewBox="0 0 810 809.999993" height="1080" preserveAspectRatio="xMidYMid meet" version="1.0"><defs><clipPath id="19fac1828c"><path d="M 405 0 C 181.324219 0 0 181.324219 0 405 C 0 628.675781 181.324219 810 405 810 C 628.675781 810 810 628.675781 810 405 C 810 181.324219 628.675781 0 405 0 " clip-rule="nonzero"/></clipPath><clipPath id="aa2e8042b6"><path d="M 110 80 L 701 80 L 701 730 L 110 730 Z M 110 80 " clip-rule="nonzero"/></clipPath><clipPath id="1b20ab19b0"><path d="M 376 110.039062 C 376 93.746094 389.207031 80.539062 405.5 80.539062 L 494 80.539062 C 510.292969 80.539062 523.5 93.746094 523.5 110.039062 C 523.5 191.5 589.539062 257.539062 671 257.539062 C 687.292969 257.539062 700.5 270.746094 700.5 287.039062 L 700.5 375.539062 C 700.5 391.832031 687.292969 405.039062 671 405.039062 C 617.285156 405.039062 566.894531 390.664062 523.5 365.566406 L 523.5 523.039062 C 523.5 637.085938 431.046875 729.539062 317 729.539062 C 202.953125 729.539062 110.5 637.085938 110.5 523.039062 C 110.5 408.992188 202.953125 316.539062 317 316.539062 C 333.292969 316.539062 346.5 329.746094 346.5 346.039062 L 346.5 434.539062 C 346.5 450.832031 333.292969 464.039062 317 464.039062 C 284.414062 464.039062 258 490.453125 258 523.039062 C 258 555.625 284.414062 582.039062 317 582.039062 C 349.585938 582.039062 376 555.625 376 523.039062 Z M 435 139.539062 L 435 523.039062 C 435 588.207031 382.167969 641.039062 317 641.039062 C 251.832031 641.039062 199 588.207031 199 523.039062 C 199 468.058594 236.605469 421.855469 287.5 408.757812 L 287.5 378.488281 C 220.175781 392.15625 169.5 451.679688 169.5 523.039062 C 169.5 604.5 235.539062 670.539062 317 670.539062 C 398.460938 670.539062 464.5 604.5 464.5 523.039062 L 464.5 307.933594 C 464.5 296.300781 471.339844 285.75 481.960938 281.003906 C 492.582031 276.253906 505.003906 278.195312 513.671875 285.953125 C 548.542969 317.160156 592.691406 338.136719 641.5 344.214844 L 641.5 314.449219 C 551.0625 301.511719 479.527344 229.976562 466.589844 139.539062 Z M 435 139.539062 " clip-rule="evenodd"/></clipPath></defs><g clip-path="url(#19fac1828c)"><rect x="-81" width="972" fill="#d8b256" y="-80.999999" height="971.999992" fill-opacity="1"/></g><g clip-path="url(#aa2e8042b6)"><g clip-path="url(#1b20ab19b0)"><path fill="#000000" d="M 110.5 80.539062 L 110.5 729.539062 L 700.5 729.539062 L 700.5 80.539062 Z M 110.5 80.539062 " fill-opacity="1" fill-rule="nonzero"/></g></g></svg>