<svg xmlns="http://www.w3.org/2000/svg" xmlns:xlink="http://www.w3.org/1999/xlink" width="1080" zoomAndPan="magnify" viewBox="0 0 810 809.999993" height="1080" preserveAspectRatio="xMidYMid meet" version="1.0"><defs><clipPath id="ed0b7901f1"><path d="M 405 0 C 181.324219 0 0 181.324219 0 405 C 0 628.675781 181.324219 810 405 810 C 628.675781 810 810 628.675781 810 405 C 810 181.324219 628.675781 0 405 0 " clip-rule="nonzero"/></clipPath><clipPath id="d7d6906fb9"><path d="M 143.445312 235 L 677 235 L 677 810 L 143.445312 810 Z M 143.445312 235 " clip-rule="nonzero"/></clipPath></defs><g clip-path="url(#ed0b7901f1)"><rect x="-81" width="972" fill="#d8b256" y="-80.999999" height="971.999992" fill-opacity="1"/></g><path fill="#ffffff" d="M 276.46875 278.878906 C 269.824219 277.835938 263.167969 276.796875 256.523438 275.753906 C 249.773438 265.003906 255.890625 248.703125 268.101562 244.882812 C 257.160156 239.59375 251.449219 225.636719 255.578125 214.324219 C 259.722656 203.011719 273.152344 195.890625 284.988281 198.726562 C 282.429688 189.878906 272.71875 177.394531 287.109375 160.851562 C 302.703125 142.933594 324.191406 162.230469 324.191406 162.230469 C 324.191406 162.230469 332.523438 139.988281 346.503906 137.617188 C 376.164062 132.601562 377.265625 153.203125 383.058594 153.957031 C 387.796875 154.566406 392.191406 148.390625 395.136719 144.679688 C 401.984375 136.0625 412.769531 132.949219 423.625 135.199219 C 434.480469 137.449219 443.699219 146.152344 446.449219 156.757812 C 455.8125 148.75 466.738281 141.136719 479.128906 141.019531 C 491.503906 140.898438 504.480469 151.839844 501.765625 163.773438 C 513.519531 157.1875 526.925781 151.46875 540.175781 154.101562 C 553.425781 156.734375 564.75 171.277344 559.171875 183.429688 C 571.90625 179.5 586.75 179.777344 597.523438 187.546875 C 608.296875 195.3125 612.820312 211.808594 606.761719 225.011719 C 619.605469 218.667969 636.796875 222.820312 645.234375 234.289062 C 653.671875 245.757812 652.34375 263.183594 642.265625 273.277344 C 653.300781 269.207031 667.785156 272.832031 672.679688 283.414062 C 677.578125 293.984375 667.292969 308.933594 655.949219 305.847656 C 670.058594 304.242188 684.230469 316.140625 684.890625 330.160156 C 685.535156 344.164062 672.527344 357.304688 658.328125 356.984375 C 676.210938 353.847656 693.148438 372.75 690.3125 390.464844 C 687.476562 408.179688 668.636719 420.832031 650.5 419.875 C 665.355469 415.253906 681.046875 433.101562 675.636719 447.515625 C 670.214844 461.9375 648.695312 466.390625 636.785156 456.480469 C 647.054688 459.722656 645.640625 476.625 636.054688 481.484375 C 626.453125 486.34375 614.53125 482.035156 606.128906 475.355469 C 614.425781 484.40625 612.472656 500.578125 602.25 507.449219 C 592.027344 514.320312 576.074219 510.175781 570.589844 499.238281 C 571.773438 510.152344 568.988281 522.183594 560.476562 529.234375 C 551.964844 536.285156 537.085938 535.867188 531.160156 526.578125 C 532.144531 537.375 524.375 548.300781 513.757812 551.054688 C 503.140625 553.808594 490.929688 548.0625 486.40625 538.1875 C 494.355469 545.441406 483.796875 560.046875 473.121094 558.226562 C 462.441406 556.40625 456.097656 545.035156 454.816406 534.417969 C 453.5 523.5 455.953125 512.175781 461.6875 502.746094 C 446.054688 515.230469 420.703125 510.058594 407.945312 494.722656 C 395.183594 479.390625 393.722656 457.054688 399.996094 438.199219 C 406.269531 419.335938 419.230469 403.378906 433.164062 389.0625 C 413.234375 373.285156 379.683594 391.003906 359.597656 375.417969 C 349.125 367.289062 346.347656 352.253906 349.363281 339.445312 C 352.378906 326.640625 360.125 315.484375 367.703125 304.675781 C 358.640625 307.941406 349.292969 311.257812 339.644531 310.898438 C 329.996094 310.539062 319.871094 305.621094 316.363281 296.75 C 314.207031 291.316406 314.78125 285.222656 313.527344 279.511719 C 312.269531 273.804688 307.910156 267.816406 302.011719 268.175781 C 296.074219 268.535156 292.6875 274.738281 288.605469 278.996094 C 281.496094 286.417969 268.148438 288.238281 260.871094 280.984375 C 253.59375 273.730469 257.914062 258.265625 276.46875 278.878906 Z M 276.46875 278.878906 " fill-opacity="1" fill-rule="nonzero"/><path fill="#ffffff" d="M 258.96875 248.59375 C 251.042969 257.835938 252.179688 274.699219 256.179688 281.128906 C 266.867188 298.257812 298.109375 303.5 312.964844 291.78125 C 321.976562 284.683594 325.902344 271.121094 320.503906 260.996094 C 317.273438 254.9375 307.695312 245.324219 301.292969 242.847656 C 294.902344 240.371094 271.976562 233.453125 258.96875 248.59375 Z M 258.96875 248.59375 " fill-opacity="1" fill-rule="nonzero"/><g clip-path="url(#d7d6906fb9)"><path fill="#ffffff" d="M 648.347656 755.636719 C 589.875 672.3125 502.554688 740.050781 468.582031 597.789062 C 457.082031 549.65625 449.074219 536.03125 458.515625 534.023438 C 573.054688 509.554688 571.152344 418.726562 573.582031 375.789062 C 576.347656 326.746094 536.621094 265.78125 498.710938 250.222656 C 418.035156 217.101562 353.839844 242.128906 306.691406 289.722656 C 273.449219 323.277344 279.066406 370.449219 276.742188 380.085938 C 271.941406 400.003906 246.015625 406.875 236.871094 417.074219 C 234.667969 419.527344 233.460938 425.441406 235.015625 429.761719 C 235.960938 432.382812 238.640625 433.941406 241.179688 435.078125 C 243.71875 436.214844 246.457031 437.125 248.46875 439.050781 C 250.46875 440.976562 248.3125 445.789062 245.871094 447.105469 C 241.683594 449.371094 238.09375 450.949219 238.1875 455.855469 C 238.285156 460.753906 240.378906 465.207031 245.273438 465.421875 C 241.648438 465.566406 240.605469 466.726562 238.691406 470.171875 C 236.929688 473.34375 238.476562 479.234375 241.429688 481.367188 C 243.847656 483.113281 248.828125 482.945312 248.769531 485.925781 C 248.757812 486.789062 246.648438 492.054688 246.230469 492.808594 C 242.472656 499.667969 240.929688 502.671875 240.953125 510.5 C 240.988281 519.765625 245.332031 530.96875 252.910156 536.296875 C 263.242188 543.550781 290.589844 545.550781 313.285156 545.871094 C 334.855469 546.183594 353.207031 561.671875 357.023438 582.910156 C 360.519531 602.371094 362.984375 626.933594 359.859375 650.5625 C 355.394531 684.257812 274.972656 705.253906 251.605469 710.796875 C 232.261719 715.394531 213.589844 722.71875 196.292969 732.511719 C 179.285156 742.148438 163.4375 754.355469 151.871094 770.132812 C 148.796875 774.335938 146.054688 778.738281 143.566406 783.289062 C 144.007812 783.289062 144.453125 783.300781 144.894531 783.324219 C 203.210938 837.144531 283.132812 866.839844 362.433594 864.171875 C 386.253906 863.371094 410.171875 859.71875 432.363281 851.039062 C 457.234375 841.320312 479.273438 825.601562 503.25 813.871094 C 552.203125 789.921875 609.410156 783.230469 662.566406 795.257812 C 667.320312 796.335938 672.070312 797.582031 676.761719 799.003906 C 669.078125 785.335938 660.484375 772.933594 648.347656 755.636719 Z M 648.347656 755.636719 " fill-opacity="1" fill-rule="nonzero"/></g></svg>